<?xml version="1.0" encoding="utf-8"?>
<!-- Generator: Adobe Illustrator 25.2.3, SVG Export Plug-In . SVG Version: 6.00 Build 0)  -->
<svg version="1.1" id="Layer_1" xmlns="http://www.w3.org/2000/svg" xmlns:xlink="http://www.w3.org/1999/xlink" x="0px" y="0px"
	 viewBox="0 0 1074.2 720.1" style="enable-background:new 0 0 1074.2 720.1;" xml:space="preserve">
<style type="text/css">
	.st0{fill:#A5A5D6;}
	.st1{fill:#FAF7ED;}
	.st2{fill:#E6E3DA;}
	.st3{fill:#202424;}
	.st4{fill:#E57E22;}
	.st5{fill:#D25400;}
	.st6{fill:#231F20;}
	.st7{fill:#4D5757;}
</style>
<g>
	<rect class="st0" width="1078.8" height="718.9"/>
	<path class="st1" d="M59.2,82.2L295,32.8c3.3-0.7,6.5,1.4,7.1,4.7l29.8,142.2c0.7,3.3-1.4,6.5-4.7,7.1L91.4,236.2
		c-3.3,0.7-6.5-1.4-7.1-4.7L54.5,89.3C53.8,86.1,55.9,82.9,59.2,82.2z"/>
	<path class="st2" d="M164.9,167.9c-1.9,0.4-3.1,2.2-2.7,4.1l2.6,12.5l37.1-7.8l-3.3-16L164.9,167.9z"/>
	<path class="st2" d="M232.4,153.7l-33.6,7l3.3,16l37-7.8l-2.6-12.5C236.2,154.6,234.3,153.3,232.4,153.7z"/>
	<path class="st2" d="M170.3,210.4c0.4,1.9,2.2,3.1,4.1,2.7l67.5-14.1c1.9-0.4,3.1-2.2,2.7-4.1l-5.4-25.6l-74.3,15.6L170.3,210.4z"
		/>
	<path class="st2" d="M69.8,92.6l219.5-46c1.7-0.4,3.4,0.7,3.8,2.5l16.3,77.8c0.4,1.7-0.7,3.4-2.5,3.8l-219.5,46
		c-1.7,0.4-3.4-0.7-3.8-2.5L67.4,96.3C67,94.6,68.1,92.9,69.8,92.6z"/>
	<path class="st3" d="M76.8,109.3l10.1-2.1c0.8-0.2,1.3-0.9,1.1-1.7l0,0l-2-9.8c-0.1-0.8-0.9-1.3-1.7-1.1l0,0l-10.1,2.1
		c-0.8,0.2-1.3,0.9-1.1,1.7l0,0l2,9.8C75.3,108.9,76,109.4,76.8,109.3L76.8,109.3z"/>
	<path class="st3" d="M99.3,91.4l-10.1,2.1c-0.8,0.2-1.2,0.9-1.1,1.7l2.1,9.8c0.1,0.8,0.9,1.3,1.7,1.1l0,0l10.1-2.1
		c0.8-0.2,1.3-0.9,1.1-1.7l-2-9.8C100.8,91.8,100,91.3,99.3,91.4L99.3,91.4z"/>
	<path class="st3" d="M114.3,88.3l-10.1,2.1c-0.8,0.2-1.3,0.9-1.1,1.7l2.1,9.8c0.1,0.8,0.9,1.3,1.7,1.1l0,0l10.1-2.1
		c0.8-0.2,1.3-0.9,1.1-1.7l0,0l-2-9.8C115.8,88.6,115.1,88.1,114.3,88.3L114.3,88.3z"/>
	<path class="st3" d="M129.3,85.1l-10.1,2.1c-0.8,0.2-1.3,0.9-1.1,1.7l2.1,9.8c0.1,0.8,0.9,1.3,1.7,1.1l0,0l10.1-2.1
		c0.8-0.2,1.3-0.9,1.1-1.7l0,0l-2-9.8C130.8,85.5,130.1,85,129.3,85.1z"/>
	<path class="st3" d="M144.3,82l-10.1,2.1c-0.8,0.2-1.2,0.9-1.1,1.7l2.1,9.8c0.1,0.8,0.9,1.3,1.7,1.1l0,0l10.1-2.1
		c0.8-0.2,1.2-0.9,1.1-1.7l-2.1-9.8C145.9,82.3,145.1,81.8,144.3,82L144.3,82z"/>
	<path class="st3" d="M159.4,78.8L149.3,81c-0.8,0.2-1.2,0.9-1.1,1.7l2.1,9.8c0.1,0.8,0.9,1.3,1.7,1.1l0,0l10.1-2.1
		c0.8-0.2,1.3-0.9,1.1-1.7l0,0l-2-9.8C160.9,79.2,160.1,78.7,159.4,78.8z"/>
	<path class="st3" d="M174.4,75.7l-10.1,2.1c-0.8,0.2-1.3,0.9-1.1,1.7l0,0l2,9.8c0.2,0.8,0.9,1.3,1.7,1.1h0l10.1-2.1
		c0.8-0.2,1.3-0.9,1.1-1.7l-2-9.8C175.9,76,175.2,75.5,174.4,75.7z"/>
	<path class="st3" d="M189.4,72.5l-10.1,2.1c-0.8,0.2-1.3,0.9-1.1,1.7l2,9.8c0.1,0.8,0.9,1.3,1.7,1.1l0,0l10.1-2.1
		c0.8-0.2,1.3-0.9,1.1-1.7l-2.1-9.8C190.9,72.9,190.2,72.4,189.4,72.5z"/>
	<path class="st3" d="M204.5,69.4l-10.1,2.1c-0.8,0.2-1.3,0.9-1.1,1.7l2.1,9.8c0.2,0.8,0.9,1.3,1.7,1.1l0,0l10.1-2.1
		c0.8-0.2,1.2-0.9,1.1-1.7l-2.1-9.8C206,69.7,205.2,69.2,204.5,69.4z"/>
	<path class="st3" d="M219.5,66.2l-10.1,2.1c-0.8,0.2-1.3,0.9-1.1,1.7l0,0l2,9.8c0.2,0.8,0.9,1.3,1.7,1.1h0l10.1-2.1
		c0.8-0.2,1.3-0.9,1.1-1.7l-2.1-9.8C221,66.6,220.3,66.1,219.5,66.2z"/>
	<path class="st3" d="M234.5,63.1l-10.1,2.1c-0.8,0.2-1.3,0.9-1.1,1.7l2,9.8c0.1,0.8,0.9,1.3,1.7,1.1l0,0l10.1-2.1
		c0.8-0.2,1.3-0.9,1.1-1.7l-2.1-9.8C236,63.4,235.3,62.9,234.5,63.1z"/>
	<path class="st3" d="M249.6,59.9l-10.1,2.1c-0.8,0.2-1.2,0.9-1.1,1.7l2.1,9.8c0.1,0.8,0.9,1.3,1.7,1.1l0,0l10.1-2.1
		c0.8-0.2,1.3-0.9,1.1-1.7l-2-9.8C251.1,60.3,250.3,59.8,249.6,59.9L249.6,59.9z"/>
	<path class="st3" d="M264.6,56.8l-10.1,2.1c-0.8,0.2-1.3,0.9-1.1,1.7l0,0l2.1,9.8c0.1,0.8,0.9,1.3,1.7,1.1l0,0l10.1-2.1
		c0.8-0.2,1.3-0.9,1.1-1.7v0l-2.1-9.8C266.1,57.1,265.4,56.6,264.6,56.8L264.6,56.8z"/>
	<path class="st3" d="M287,52.1l-17,3.6c-0.8,0.2-1.3,0.9-1.1,1.7l2,9.8c0.1,0.8,0.9,1.3,1.7,1.1l0,0l17-3.6
		c0.8-0.2,1.2-0.9,1.1-1.7l-2-9.8C288.6,52.4,287.8,51.9,287,52.1L287,52.1z"/>
	<path class="st3" d="M98.7,108.7l2.1,9.8c0.2,0.8,0.9,1.3,1.7,1.1h0l10.1-2.1c0.8-0.2,1.3-0.9,1.1-1.7l-2.1-9.8
		c-0.2-0.8-0.9-1.3-1.7-1.1l0,0L99.8,107C99,107.2,98.5,107.9,98.7,108.7L98.7,108.7z"/>
	<path class="st3" d="M78.3,123.2c0.2,0.8,0.9,1.3,1.7,1.1l0,0l17.4-3.6c0.8-0.2,1.3-0.9,1.1-1.7l-2-9.8c-0.1-0.8-0.9-1.3-1.7-1.1
		l0,0l-17.4,3.6c-0.8,0.2-1.3,0.9-1.1,1.7l0,0L78.3,123.2z"/>
	<path class="st3" d="M113.7,105.6l2,9.8c0.1,0.8,0.9,1.3,1.7,1.1l0,0l10.1-2.1c0.8-0.2,1.2-0.9,1.1-1.7l-2.1-9.8
		c-0.1-0.8-0.9-1.3-1.7-1.1l0,0l-10.1,2.1C114,104,113.5,104.8,113.7,105.6z"/>
	<path class="st3" d="M128.7,102.4l2.1,9.8c0.1,0.8,0.9,1.3,1.7,1.1l0,0l10.1-2.1c0.8-0.2,1.3-0.9,1.1-1.7l0,0l-2-9.8
		c-0.2-0.8-0.9-1.3-1.7-1.1h0l-10.1,2.1C129,100.9,128.6,101.6,128.7,102.4z"/>
	<path class="st3" d="M143.8,99.3l2,9.8c0.2,0.8,0.9,1.3,1.7,1.1l10.1-2.1c0.8-0.2,1.3-0.9,1.1-1.7l-2-9.8c-0.1-0.8-0.9-1.3-1.7-1.1
		l0,0l-10.1,2.1C144.1,97.7,143.6,98.5,143.8,99.3z"/>
	<path class="st3" d="M158.8,96.1l2.1,9.8c0.1,0.8,0.9,1.3,1.7,1.1l0,0l10.1-2.1c0.8-0.2,1.3-0.9,1.1-1.7l-2.1-9.8
		c-0.2-0.8-0.9-1.3-1.7-1.1h0l-10.1,2.1C159.1,94.6,158.6,95.3,158.8,96.1z"/>
	<path class="st3" d="M173.8,93l2.1,9.8c0.1,0.8,0.9,1.3,1.7,1.1l0,0l10.1-2.1c0.8-0.2,1.3-0.9,1.1-1.7l-2-9.8
		c-0.2-0.8-0.9-1.3-1.7-1.1h0l-10.1,2.1C174.1,91.4,173.7,92.2,173.8,93z"/>
	<path class="st3" d="M188.8,89.8l2.1,9.8c0.1,0.8,0.9,1.3,1.7,1.1l0,0l10.1-2.1c0.8-0.2,1.3-0.9,1.1-1.7l0,0l-2-9.8
		c-0.2-0.8-0.9-1.3-1.7-1.1h0l-10.1,2.1C189.2,88.3,188.7,89.1,188.8,89.8z"/>
	<path class="st3" d="M203.9,86.7l2,9.8c0.1,0.8,0.9,1.3,1.7,1.1l0,0l10.1-2.1c0.8-0.2,1.3-0.9,1.1-1.7l-2.1-9.8
		c-0.1-0.8-0.9-1.3-1.7-1.1l0,0L204.9,85C204.2,85.1,203.7,85.9,203.9,86.7L203.9,86.7z"/>
	<path class="st3" d="M218.9,83.5l2,9.8c0.1,0.8,0.9,1.3,1.7,1.1l0,0l10.1-2.1c0.8-0.2,1.2-0.9,1.1-1.7l-2.1-9.8
		c-0.1-0.8-0.9-1.3-1.7-1.1l0,0L220,81.8C219.2,82,218.7,82.8,218.9,83.5z"/>
	<path class="st3" d="M233.9,80.4l2,9.8c0.2,0.8,0.9,1.3,1.7,1.1h0l10.1-2.1c0.8-0.2,1.3-0.9,1.1-1.7l-2.1-9.8
		c-0.1-0.8-0.9-1.3-1.7-1.1l0,0L235,78.7C234.3,78.8,233.8,79.6,233.9,80.4L233.9,80.4z"/>
	<path class="st3" d="M249,77.2l2,9.8c0.2,0.8,0.9,1.3,1.7,1.1h0l10.1-2.1c0.8-0.2,1.3-0.9,1.1-1.7l-2.1-9.8
		c-0.1-0.8-0.9-1.3-1.7-1.1l0,0L250,75.5C249.3,75.7,248.8,76.5,249,77.2z"/>
	<path class="st3" d="M278.9,81.2l-2.1-9.8c-0.1-0.8-0.9-1.3-1.7-1.1l0,0l-10.1,2.1c-0.8,0.2-1.3,0.9-1.1,1.7l2,9.8
		c0.1,0.8,0.9,1.3,1.7,1.1l0,0l10.1-2.1C278.6,82.7,279,82,278.9,81.2L278.9,81.2z"/>
	<path class="st3" d="M290.2,67.1l-10.1,2.1c-0.8,0.2-1.3,0.9-1.1,1.7l0,0l2.1,9.8c0.2,0.8,0.9,1.3,1.7,1.1h0l10.1-2.1
		c0.8-0.2,1.3-0.9,1.1-1.7l0,0l-2-9.8C291.7,67.5,291,67,290.2,67.1L290.2,67.1z"/>
	<path class="st3" d="M120.5,129.9l-2-9.8c-0.2-0.8-0.9-1.3-1.7-1.1h0l-10.1,2.1c-0.8,0.2-1.2,0.9-1.1,1.7l2.1,9.8
		c0.1,0.8,0.9,1.3,1.7,1.1l0,0l10.1-2.1C120.2,131.4,120.7,130.6,120.5,129.9L120.5,129.9z"/>
	<path class="st3" d="M81.4,138.1c0.1,0.8,0.9,1.3,1.7,1.1l0,0l21.3-4.5c0.8-0.2,1.3-0.9,1.1-1.7l-2.1-9.8c-0.2-0.8-0.9-1.3-1.7-1.1
		l-21.3,4.5c-0.8,0.2-1.3,0.9-1.1,1.7L81.4,138.1z"/>
	<path class="st3" d="M135.5,126.7l-2.1-9.8c-0.1-0.8-0.9-1.3-1.7-1.1l0,0l-10.1,2.1c-0.8,0.2-1.3,0.9-1.1,1.7l2,9.8
		c0.2,0.8,0.9,1.3,1.7,1.1h0l10.1-2.1C135.2,128.2,135.7,127.5,135.5,126.7z"/>
	<path class="st3" d="M150.6,123.6l-2.1-9.8c-0.1-0.8-0.9-1.3-1.7-1.1l0,0l-10.1,2.1c-0.8,0.2-1.3,0.9-1.1,1.7l2,9.8
		c0.1,0.8,0.9,1.3,1.7,1.1l0,0l10.1-2.1C150.3,125.1,150.7,124.3,150.6,123.6z"/>
	<path class="st3" d="M165.6,120.4l-2.1-9.8c-0.1-0.8-0.9-1.3-1.7-1.1l0,0l-10.1,2.1c-0.8,0.2-1.3,0.9-1.1,1.7l2.1,9.8
		c0.2,0.8,0.9,1.3,1.7,1.1h0l10.1-2.1C165.3,121.9,165.8,121.2,165.6,120.4z"/>
	<path class="st3" d="M180.6,117.3l-2-9.8c-0.2-0.8-0.9-1.3-1.7-1.1l-10.1,2.1c-0.8,0.2-1.3,0.9-1.1,1.7l0,0l2,9.8
		c0.2,0.8,0.9,1.3,1.7,1.1h0l10.1-2.1C180.3,118.8,180.8,118,180.6,117.3z"/>
	<path class="st3" d="M195.7,114.1l-2.1-9.8c-0.1-0.8-0.9-1.3-1.7-1.1l0,0l-10.1,2.1c-0.8,0.2-1.3,0.9-1.1,1.7l2.1,9.8
		c0.1,0.8,0.9,1.3,1.7,1.1l0,0l10.1-2.1C195.4,115.6,195.8,114.9,195.7,114.1z"/>
	<path class="st3" d="M210.7,111l-2-9.8c-0.2-0.8-0.9-1.3-1.7-1.1h0l-10.1,2.1c-0.8,0.2-1.3,0.9-1.1,1.7l2.1,9.8
		c0.1,0.8,0.9,1.3,1.7,1.1l0,0l10.1-2.1C210.4,112.5,210.9,111.8,210.7,111L210.7,111z"/>
	<path class="st3" d="M225.7,107.8l-2.1-9.8c-0.2-0.8-0.9-1.3-1.7-1.1l0,0L211.9,99c-0.8,0.2-1.3,0.9-1.1,1.7v0l2,9.8
		c0.2,0.8,0.9,1.3,1.7,1.1h0l10.1-2.1C225.4,109.4,225.9,108.6,225.7,107.8L225.7,107.8z"/>
	<path class="st3" d="M240.8,104.7l-2-9.8c-0.1-0.8-0.9-1.3-1.7-1.1l0,0l-10.1,2.1c-0.8,0.2-1.3,0.9-1.1,1.7l2.1,9.8
		c0.1,0.8,0.9,1.3,1.7,1.1l0,0l10.1-2.1C240.4,106.2,240.9,105.5,240.8,104.7L240.8,104.7z"/>
	<path class="st3" d="M255.8,101.5l-2-9.8c-0.1-0.8-0.9-1.3-1.7-1.1l0,0L242,92.7c-0.8,0.2-1.3,0.9-1.1,1.7l2.1,9.8
		c0.1,0.8,0.9,1.3,1.7,1.1l0,0l10.1-2.1C255.5,103.1,256,102.3,255.8,101.5L255.8,101.5z"/>
	<path class="st3" d="M270.8,98.4l-2-9.8c-0.2-0.8-0.9-1.3-1.7-1.1h0L257,89.6c-0.8,0.2-1.3,0.9-1.1,1.7l2.1,9.8
		c0.1,0.8,0.9,1.3,1.7,1.1l0,0l10.1-2.1C270.5,99.9,271,99.2,270.8,98.4L270.8,98.4z"/>
	<path class="st3" d="M293.3,82l-20.7,4.3c-0.8,0.2-1.3,0.9-1.1,1.7l2,9.8c0.1,0.8,0.9,1.3,1.7,1.1l0,0l20.7-4.3
		c0.8-0.2,1.3-0.9,1.1-1.7l-2.1-9.8C294.8,82.3,294.1,81.8,293.3,82L293.3,82z"/>
	<path class="st3" d="M120.1,146.9l10.1-2.1c0.8-0.2,1.3-0.9,1.1-1.7l0,0l-2-9.8c-0.1-0.8-0.9-1.3-1.7-1.1l0,0l-10.1,2.1
		c-0.8,0.2-1.2,0.9-1.1,1.7l0,0l2.1,9.8C118.6,146.5,119.3,147,120.1,146.9z"/>
	<path class="st3" d="M84.5,152.9c0.2,0.8,0.9,1.3,1.7,1.1l0,0l28.9-6.1c0.8-0.2,1.2-0.9,1.1-1.7l0,0l-2-9.8
		c-0.2-0.8-0.9-1.3-1.7-1.1h0l-28.9,6c-0.8,0.2-1.3,0.9-1.1,1.7L84.5,152.9z"/>
	<path class="st3" d="M142.6,129l-10.1,2.1c-0.8,0.2-1.2,0.9-1.1,1.7l0,0l2,9.8c0.2,0.8,0.9,1.3,1.7,1.1h0l10.1-2.1
		c0.8-0.2,1.2-0.9,1.1-1.7l-2-9.8C144.1,129.4,143.3,128.8,142.6,129L142.6,129z"/>
	<path class="st3" d="M150.1,140.6l10.1-2.1c0.8-0.2,1.3-0.9,1.1-1.7l-2.1-9.8c-0.1-0.8-0.9-1.3-1.7-1.1l0,0l-10.1,2.1
		c-0.8,0.2-1.3,0.9-1.1,1.7l2.1,9.8C148.6,140.2,149.4,140.7,150.1,140.6L150.1,140.6z"/>
	<path class="st3" d="M165.2,137.4l10.1-2.1c0.8-0.2,1.2-0.9,1.1-1.7l-2.1-9.8c-0.1-0.8-0.9-1.3-1.7-1.1l0,0l-10.1,2.1
		c-0.8,0.1-1.3,0.9-1.1,1.7l0,0.1l2,9.8C163.7,137.1,164.4,137.6,165.2,137.4L165.2,137.4z"/>
	<path class="st3" d="M180.2,134.3l10.1-2.1c0.8-0.2,1.2-0.9,1.1-1.7l-2.1-9.8c-0.2-0.8-0.9-1.3-1.7-1.1l-10.1,2.1
		c-0.8,0.2-1.3,0.9-1.1,1.7l2,9.8C178.7,133.9,179.4,134.4,180.2,134.3z"/>
	<path class="st3" d="M236,125.5l-85.2,17.9c-0.8,0.2-1.2,0.9-1.1,1.7l2.4,11.6c0.1,0.8,0.9,1.3,1.7,1.1l0,0l85.2-17.8
		c0.8-0.2,1.3-0.9,1.1-1.7l-2.4-11.6C237.5,125.8,236.7,125.3,236,125.5z"/>
	<path class="st3" d="M145.8,144.4l-17.7,3.7c-0.8,0.2-1.3,0.9-1.1,1.7l2.4,11.6c0.1,0.8,0.9,1.3,1.7,1.1l0,0l17.7-3.7
		c0.8-0.2,1.3-0.9,1.1-1.7l0,0l-2.4-11.6C147.3,144.7,146.6,144.2,145.8,144.4L145.8,144.4z"/>
	<path class="st3" d="M258.6,120.7l-17.7,3.7c-0.8,0.2-1.3,0.9-1.1,1.7l0,0l2.4,11.6c0.2,0.8,0.9,1.3,1.7,1.1l17.7-3.7
		c0.8-0.2,1.2-0.9,1.1-1.7l-2.4-11.6C260.1,121.1,259.3,120.6,258.6,120.7z"/>
	<path class="st3" d="M277.2,116.8l-13.4,2.8c-0.8,0.2-1.3,0.9-1.1,1.7l2.4,11.6c0.1,0.8,0.9,1.3,1.7,1.1l0,0l13.4-2.8
		c0.8-0.2,1.3-0.9,1.1-1.7l-2.4-11.6C278.7,117.2,278,116.7,277.2,116.8z"/>
	<path class="st3" d="M299.6,112.1l-17.1,3.6c-0.8,0.2-1.3,0.9-1.1,1.7l2.4,11.6c0.1,0.8,0.9,1.3,1.7,1.1l0,0l17.2-3.6
		c0.8-0.2,1.3-0.9,1.1-1.7l-2.4-11.6C301.1,112.5,300.4,112,299.6,112.1L299.6,112.1z"/>
	<path class="st3" d="M123.1,149.1l-13.9,2.9c-0.8,0.2-1.3,0.9-1.1,1.7l0,0l2.4,11.6c0.1,0.8,0.9,1.3,1.7,1.1l0,0l13.9-2.9
		c0.8-0.2,1.2-0.9,1.1-1.7l-2.4-11.6C124.6,149.5,123.9,149,123.1,149.1L123.1,149.1z"/>
	<path class="st3" d="M104.1,153.1l-17.4,3.6c-0.8,0.2-1.2,0.9-1.1,1.7l2.4,11.6c0.1,0.8,0.9,1.3,1.7,1.1l0,0l17.4-3.6
		c0.8-0.2,1.3-0.9,1.1-1.7l-2.4-11.6C105.6,153.4,104.9,152.9,104.1,153.1L104.1,153.1z"/>
	<path class="st3" d="M195.2,131.1l10.1-2.1c0.8-0.2,1.3-0.9,1.1-1.7l-2-9.8c-0.1-0.8-0.9-1.3-1.7-1.1l0,0l-10.1,2.1
		c-0.8,0.2-1.3,0.9-1.1,1.7l0,0l2,9.8C193.7,130.8,194.5,131.3,195.2,131.1z"/>
	<path class="st3" d="M210.2,128l10.1-2.1c0.8-0.2,1.3-0.9,1.1-1.7l-2-9.8c-0.1-0.8-0.9-1.3-1.7-1.1l0,0l-10.1,2.1
		c-0.8,0.2-1.3,0.9-1.1,1.7l2,9.8C208.7,127.6,209.5,128.1,210.2,128z"/>
	<path class="st3" d="M232.7,110.1l-10.1,2.1c-0.8,0.2-1.2,0.9-1.1,1.7l2,9.8c0.1,0.8,0.9,1.3,1.7,1.1l0,0l10.1-2.1
		c0.8-0.2,1.3-0.9,1.1-1.7l-2.1-9.8C234.2,110.5,233.5,110,232.7,110.1z"/>
	<path class="st3" d="M240.3,121.7l10.1-2.1c0.8-0.2,1.3-0.9,1.1-1.7l0,0l-2-9.8c-0.2-0.8-0.9-1.3-1.7-1.1h0l-10.1,2.1
		c-0.8,0.2-1.3,0.9-1.1,1.7l2.1,9.8C238.8,121.3,239.6,121.8,240.3,121.7z"/>
	<path class="st3" d="M255.3,118.5l10.1-2.1c0.8-0.2,1.3-0.9,1.1-1.7l-2-9.8c-0.1-0.8-0.9-1.3-1.7-1.1l0,0l-10.1,2.1
		c-0.8,0.2-1.3,0.9-1.1,1.7l2.1,9.8C253.8,118.2,254.6,118.7,255.3,118.5z"/>
	<path class="st3" d="M296.4,96.8l-28.4,5.9c-0.8,0.2-1.3,0.9-1.1,1.7l2,9.8c0.2,0.8,0.9,1.3,1.7,1.1l28.4-5.9
		c0.8-0.2,1.3-0.9,1.1-1.7l-2.1-9.8C297.9,97.1,297.2,96.6,296.4,96.8L296.4,96.8z"/>
	<path class="st3" d="M307.6-49.4L161.2-18.7l-0.2,0L14.6,12c-4.6,1-7,5.2-4.9,8.4l40.9,59.9c1.4,2,4.2,3,7.1,2.3l119.3-25l0.2,0
		l119.3-25c2.9-0.6,5.2-2.6,5.6-5l13.4-71.3C316.2-47.5,312.2-50.4,307.6-49.4z"/>
	<polygon class="st1" points="163.1,-9.6 162.9,-9.6 22.2,19.9 57.8,77.1 175.9,52.4 176.1,52.3 294.2,27.6 303.8,-39.1 	"/>
	<path class="st1" d="M442.6,217.1l-6.3-3.6c5.8-15.4-2-32.6-17.4-38.5c-15.4-5.8-32.6,2-38.5,17.4c-5.8,15.4,2,32.6,17.4,38.5
		c12,4.5,25.7,0.9,33.8-9.2l0-0.1l6.3,3.6c2.2,1.3,5.1,0.5,6.4-1.7S444.8,218.4,442.6,217.1L442.6,217.1z"/>
	<path class="st4" d="M386.6,196.2c3.7-12,16.4-18.7,28.4-15c12,3.7,18.7,16.4,15,28.4c-3.7,12-16.4,18.7-28.4,15
		C389.7,220.9,382.9,208.2,386.6,196.2z"/>
	<path class="st5" d="M419.7,183.2c-0.9-0.5-1.7-0.9-2.7-1.3c10,7.6,11.9,21.9,4.3,31.9c-6.3,8.2-17.2,11.2-26.8,7.2
		c10,7.6,24.3,5.7,31.9-4.3c7.6-10,5.7-24.3-4.3-31.9C421.4,184.2,420.5,183.6,419.7,183.2z"/>
	<polygon class="st3" points="407.5,86.5 407.5,86.5 407.5,86.5 	"/>
	<path class="st3" d="M410.9,81.5L410.9,81.5L410.9,81.5z"/>
	<path class="st3" d="M366.9,81.1c2.1,1.4,2.7,1.6,5,0.3c0.2-0.1,0.4-0.2,0.7-0.4l0.1,0.1c2,2.5,4.5,4.6,7.4,6
		c5.2,2.7,10.9,3.2,15.4,1.5c0.8-0.3,1.5-0.7,2.3-1.1c1.2-0.8,2.4-1.8,3.3-2.9c0.4-0.5,0.7-1,1.1-1.5c3.8,2.3,5.5,3.4,5.5,3.4
		c0,0,1.7,1.1,5.3,3.7c-0.3,0.5-0.6,1-0.9,1.5c-0.7,1.3-1.2,2.7-1.4,4.2c-0.1,0.8-0.2,1.7-0.2,2.5c0.1,4.8,2.9,9.8,7.4,13.6
		c2.5,2.1,5.3,3.6,8.4,4.5l0.1,0c0,0.3,0,0.6-0.1,0.8c-0.3,2.5,0.1,3.1,2.2,4.5c2.1,1.4,4.8,3.6,3.4-0.8c-0.5-1.4-0.9-2.8-1.2-4.2
		c2.3-0.4,4.5-1.3,6.3-2.8c1.5-1.2,2.7-2.6,3.5-4.3c0.8,0.5,1.9,0.9,3.1-0.4c2-2.2,2.6-0.9,2.9-0.7c0.3,0.2,0.3,0.2,1.2-1
		c0.9-1.3,1.3-1.6,0.3-2.8c-1-1.2-6.9-7.3-15.9-12.8c-8.7-5.4-14.1-7-18.2-7.5c-1-1.4-3.1-2.9-3.1-2.9c0,0-2.2-1.3-3.9-1.7
		c-2.1-3.5-5.7-7.9-14-13.8c-8.6-6.1-16.5-9.1-18-9.6c-1.5-0.4-1.6,0.1-2.4,1.4c-0.8,1.3-0.8,1.3-0.5,1.5c0.3,0.2,1.7,0.3,0.5,3
		c-0.7,1.6,0.1,2.5,0.9,3c-1.2,1.5-2.1,3.1-2.6,5c-0.7,2.3-0.7,4.7-0.1,6.9c-1.4,0.2-2.8,0.4-4.3,0.5
		C361.7,78.1,364.8,79.7,366.9,81.1z M409.7,83.2c1,0.7,1.9,1.5,2.7,2.4c0,0.1,0,0.3-0.1,0.4l-3.3-1.9l-3-2.3
		c0.1-0.1,0.2-0.1,0.3-0.2C407.6,82,408.7,82.5,409.7,83.2z M439.6,108.8c-1.7,3.4-5.3,6.4-9.3,7c-0.1-0.3-0.1-0.6-0.2-0.8
		c-0.6,0.1-1.2,0.1-1.9,0.1c-0.7,0-1.3-0.1-2-0.2c0,0.3,0,0.5,0,0.8l-0.1,0c-7.8-2.1-14.6-9.5-14.9-16.9c-0.1-2.8,0.8-5.5,2.4-7.8
		c3.9,2.9,6.8,3.4,11,10.7c1.4,2.4,1.7,8,1.7,12c0.5,0.1,1,0.2,1.6,0.2c0.6,0,1.3,0,1.9-0.1c-1.1-4.7-1.8-8.6-2.9-11.2
		c-1.6-3.8-4.8-7.4-9.2-10.1c9,5.7,18.6,11.5,22.6,13.9C440.2,107.1,440,108,439.6,108.8z M444.5,105.7c-2.7-1.8-1.5-2.7,0.6-1.3
		C447.2,105.9,446.8,107.3,444.5,105.7L444.5,105.7z M425.1,89.9c4.4,2.2,12,6.6,14.5,12.1c-3.3-1.9-9.3-5.4-15.9-9.3l-5.4-3.2
		c-0.6,0-1.2,0.2-1.7,0.5c0.4-0.4,0.8-0.6,1.3-0.8c-0.6-0.3-1.2-0.7-1.7-1C417.9,87.6,420.6,87.6,425.1,89.9L425.1,89.9z
		 M410.7,81.7l-0.1,0.2L410.7,81.7c0.9,0.6,1.6,1.5,2.1,2.4c-1.2-1.8-3.1-3-5.2-3.4C408.7,80.8,409.8,81.1,410.7,81.7L410.7,81.7z
		 M397.6,71.7c3.8,3.2,4.9,5.7,5,7.5l-1.6-1.2c0,0.5,0,1-0.2,1.5c0.1-0.6,0.1-1.2-0.2-1.8l-5-3.7c-6.1-4.5-11.7-8.7-14.8-11
		C386.8,63.2,393.8,68.5,397.6,71.7L397.6,71.7z M376.3,59c2.1,1.4,1.8,2.9-0.9,1.1C373,58.5,374.2,57.5,376.3,59L376.3,59z
		 M374.4,65.7c0.6-0.7,1.3-1.2,2.2-1.7c3.8,2.8,12.9,9.4,21.6,15.4c-4.2-3-8.7-4.6-12.9-4.5c-2.8,0-6.7,0.9-11.4,1.8
		c0.1,0.6,0.4,1.2,0.6,1.8c0.2,0.5,0.5,0.9,0.8,1.4c3.7-1.6,9-3.5,11.7-3.2c8.3,1,9.9,3.4,14.1,5.9c-1.5,2.4-3.7,4.2-6.3,5.3
		c-6.9,2.7-16.4-0.7-21.4-7l-0.1-0.1l0.7-0.3c-0.4-0.5-0.7-1.1-1-1.7c-0.3-0.6-0.5-1.2-0.6-1.8l-0.9,0.1
		C370.6,73,371.9,68.6,374.4,65.7z"/>
	<path class="st2" d="M396.4,88.6c1.1,2.1,3.2,0.2,4.3-1.7c0.8-1.3,0.5-2,0.3-2.3c-0.9,1.1-2.1,2.1-3.3,2.9
		C397.3,87.9,396.8,88.2,396.4,88.6z"/>
	<path class="st1" d="M376.3,59c-2.1-1.4-3.3-0.5-0.9,1.1C378.1,61.8,378.5,60.4,376.3,59z"/>
	<path class="st1" d="M396.7,85.7c-7.2,3.8-17.5-0.2-21.4-6c-0.3-0.4-0.6-0.9-0.8-1.4c-0.3-0.6-0.5-1.2-0.6-1.8
		c-1.4-5.9,3.4-11.7,3.4-11.7s-6.4,5.4-4.8,12c0.1,0.6,0.4,1.2,0.6,1.8c0.3,0.6,0.6,1.2,1,1.7C378.5,86.7,389.4,90.5,396.7,85.7z"/>
	<path class="st1" d="M407.7,80.7c1,0.3,2,0.7,2.9,1.2l0.1-0.2C409.8,81.1,408.7,80.8,407.7,80.7z"/>
	<path class="st1" d="M387.1,66.1c-0.1,0,11.7,6.7,13.5,11.7c0.2,0.6,0.3,1.2,0.2,1.8c0.2-0.5,0.3-1,0.2-1.5
		C400.6,73.4,391.2,67.8,387.1,66.1z"/>
	<path class="st2" d="M410,97.6c0.1-0.6,0.3-1.1,0.5-1.6c0.2-1.5,0.7-2.9,1.4-4.2c-0.4-0.1-1.2,0-2,1.2
		C408.6,94.7,407.6,97.4,410,97.6z"/>
	<path class="st1" d="M444.5,105.7c2.4,1.6,2.8,0.1,0.6-1.3S441.8,103.9,444.5,105.7z"/>
	<path class="st1" d="M429.8,113.6c-0.6,0.1-1.2,0.2-1.9,0.1c-0.5,0-1.1-0.1-1.6-0.2c-6.8-1.3-14.5-9.3-13.9-17.4
		c-1.5,8.6,6.3,17.1,13.8,18.6c0.6,0.1,1.3,0.2,2,0.2c0.6,0,1.3,0,1.9-0.1c6.7-1.1,9.1-9.1,9.1-9.1S435.8,112.6,429.8,113.6z"/>
	<path class="st1" d="M412.9,84.1c-0.5-1-1.3-1.8-2.1-2.4l-0.1,0.2C411.4,82.5,412.2,83.3,412.9,84.1z"/>
	<path class="st1" d="M417.9,89.2c-0.5,0.2-0.9,0.4-1.3,0.8c0.5-0.3,1.1-0.5,1.7-0.5c5.3-0.3,16.1,7.9,16,7.8
		C431.1,94.3,422.3,87.7,417.9,89.2z"/>
	<path class="st3" d="M254,412.2l-11.9,40c-0.9,3.1,0.8,6.3,3.9,7.2h0l19.5,5.8c3.1,0.9,6.3-0.8,7.2-3.9v0l11.9-40L254,412.2z"/>
	<path class="st3" d="M365.8,445.6l-11.9,40c-0.9,3.1,0.8,6.3,3.9,7.2h0l19.5,5.8c3.1,0.9,6.3-0.8,7.2-3.9l11.9-40L365.8,445.6z"/>
	<path class="st3" d="M360.1,316.7c-48-14.3-98.6,13-112.9,61l-12.4,41.4l-3,10.2c3.8,1.1,7.7-1.1,8.9-4.9l13.4-44.8
		c13.2-44.2,59.9-69.4,104.1-56.2c44.2,13.2,69.4,59.9,56.2,104.1L401,472.2c-1.1,3.8,1,7.8,4.7,8.9l3-10.2l12.4-41.4
		C435.4,381.6,408.1,331,360.1,316.7z"/>
	<path class="st6" d="M405.8,481.4l-0.2-0.1c-3.8-1.2-6-5.3-4.8-9.2l13.4-44.8c13.2-44.1-12-90.7-56.1-103.9
		c-44.1-13.2-90.7,12-103.9,56.1l-13.4,44.8c-1.2,3.8-5.2,6.1-9.1,5l-0.2-0.1l15.5-51.8c7-23.3,22.5-42.5,43.9-54s46-14.1,69.2-7.1
		c23.3,6.9,42.5,22.5,54,43.9c11.5,21.4,14.1,46,7.1,69.2L405.8,481.4z M334.2,319.6c7.9,0,16,1.1,23.9,3.5
		c44.3,13.2,69.6,60,56.4,104.3l-13.4,44.8c-1.1,3.6,0.9,7.4,4.4,8.7l15.3-51.4c14.3-47.9-13-98.4-60.9-112.7
		c-23.2-6.9-47.7-4.4-69,7.1c-21.3,11.5-36.8,30.6-43.7,53.8L232,429.1c3.6,0.9,7.4-1.2,8.4-4.8l13.4-44.8
		C264.7,343.2,298.1,319.6,334.2,319.6z"/>
	<path class="st7" d="M362.2,309.5c-51.9-15.5-106.6,14-122.1,66l-13.4,44.8c-1.1,3.8,1,7.9,4.9,9l0,0l0.1,0l3-10.2l12.4-41.4
		c14.3-48,64.9-75.4,112.9-61c48,14.3,75.3,64.9,61,112.9L408.7,471l-3,10.2l0.1,0c3.8,1.1,7.9-1,9-4.9l0,0l13.4-44.8
		C443.7,379.7,414.2,325,362.2,309.5z"/>
	<path class="st7" d="M407.9,481.7c-0.7,0-1.4-0.1-2.1-0.3l-0.3-0.1l15.5-51.8c14.3-47.9-13-98.4-60.9-112.7
		c-23.2-6.9-47.7-4.4-69,7.1c-21.3,11.5-36.8,30.6-43.7,53.8l-15.5,51.8l-0.3-0.1c-3.9-1.2-6.2-5.3-5-9.2l13.4-44.8
		c7.5-25.2,24.4-45.9,47.5-58.4c23.1-12.5,49.7-15.2,74.9-7.7c25.2,7.5,45.9,24.4,58.4,47.5c12.5,23.1,15.2,49.7,7.7,74.8L415,476.4
		c-0.6,1.9-1.9,3.5-3.6,4.4C410.3,481.4,409.1,481.7,407.9,481.7z M405.9,481.1c1.8,0.5,3.7,0.3,5.3-0.6c1.7-0.9,2.9-2.4,3.4-4.2
		l13.4-44.8c15.4-51.7-14.1-106.4-65.8-121.8c-25.1-7.5-51.5-4.8-74.6,7.7c-23,12.4-39.8,33.1-47.3,58.2l-13.4,44.8
		c-0.5,1.8-0.3,3.7,0.5,5.4c0.9,1.7,2.4,2.9,4.2,3.4l15.4-51.4c6.9-23.3,22.5-42.5,43.9-54c21.4-11.6,46-14.1,69.2-7.1
		c23.3,7,42.5,22.5,54,43.9s14.1,46,7.1,69.2L405.9,481.1z"/>
	<path class="st7" d="M396.4,454.7l11.9-40c0.9-3.1-0.8-6.3-3.9-7.2l-19.5-5.8c-3.1-0.9-6.3,0.8-7.2,3.9l0,0l-11.9,40L396.4,454.7z"
		/>
	<path class="st7" d="M284.7,421.4l11.9-40c0.9-3.1-0.8-6.3-3.9-7.2l-19.5-5.8c-3.1-0.9-6.3,0.8-7.2,3.9l-11.9,40L284.7,421.4z"/>
	<path class="st4" d="M410.9,422.4l-4.5-1.3l-10,33.6l9,2.7l8.7-29.1C414.8,425.8,413.4,423.2,410.9,422.4L410.9,422.4z"/>
	<path class="st4" d="M264.1,378.6l-4.5-1.3c-2.5-0.7-5.1,0.7-5.9,3.2l-8.7,29.1l9,2.7L264.1,378.6z"/>
	<path class="st5" d="M254,412.2l-9-2.7l-8.7,29.1c-0.7,2.5,0.7,5.1,3.2,5.9l4.5,1.3L254,412.2z"/>
	<path class="st5" d="M396.4,454.7l-10,33.6l4.5,1.3c2.5,0.7,5.1-0.7,5.9-3.2l0,0l8.7-29.1L396.4,454.7z"/>
	<path class="st3" d="M1022.3,83.9l-174.4-97c-2.6-1.4-5.9-0.5-7.3,2.1L779.2,99.3c-1.4,2.6-0.5,5.9,2.1,7.3l0,0l174.4,97
		c2.6,1.4,5.9,0.5,7.3-2.1l0,0l61.3-110.3C1025.8,88.6,1024.9,85.4,1022.3,83.9L1022.3,83.9z M843.4,13.5c0.2-0.3,0.5-0.4,0.8-0.2
		l0,0l11.8,6.6c0.3,0.2,0.4,0.5,0.2,0.8l0,0l-2.7,4.9c-0.2,0.3-0.5,0.4-0.8,0.2l-11.8-6.6c-0.3-0.2-0.4-0.5-0.2-0.8l0,0L843.4,13.5z
		 M839.1,21.2c0.2-0.3,0.5-0.4,0.8-0.2l0,0l11.8,6.6c0.3,0.2,0.4,0.5,0.2,0.8l-2.7,4.9c-0.2,0.3-0.5,0.4-0.8,0.2L836.6,27
		c-0.3-0.2-0.4-0.5-0.2-0.8L839.1,21.2z M834.8,29c0.2-0.3,0.5-0.4,0.8-0.2l0,0l11.8,6.6c0.3,0.2,0.4,0.5,0.2,0.8l0,0L845,41
		c-0.2,0.3-0.5,0.4-0.8,0.2l-11.8-6.6c-0.3-0.2-0.4-0.5-0.2-0.8l0,0L834.8,29z M814.5,95.9c-0.2,0.3-0.5,0.4-0.8,0.2l-11.8-6.6
		c-0.3-0.2-0.4-0.5-0.2-0.8l2.7-4.9c0.2-0.3,0.5-0.4,0.8-0.2l0,0l11.8,6.6c0.3,0.2,0.4,0.5,0.2,0.8L814.5,95.9z M818.8,88.2
		c-0.2,0.3-0.5,0.4-0.8,0.2l-11.9-6.6c-0.3-0.2-0.4-0.5-0.2-0.8l0,0l2.7-4.9c0.2-0.3,0.5-0.4,0.8-0.2l0,0l11.8,6.6
		c0.3,0.2,0.4,0.5,0.2,0.8l0,0L818.8,88.2z M823,80.5c-0.2,0.3-0.5,0.4-0.8,0.2l-11.8-6.6c-0.3-0.2-0.4-0.5-0.2-0.8l2.7-4.9
		c0.2-0.3,0.5-0.4,0.8-0.2l0,0l11.8,6.6c0.3,0.2,0.4,0.5,0.2,0.8L823,80.5z M822.2,66.8c-6.6-3.7-9-12.1-5.3-18.7
		c3.7-6.6,12.1-9,18.7-5.3c6.6,3.7,9,12.1,5.3,18.7l0,0C837.3,68.1,828.9,70.5,822.2,66.8L822.2,66.8L822.2,66.8z M947.3,176.5
		l-122.2-68l47.5-85.5l122.2,68L947.3,176.5z"/>
	<path class="st3" d="M843.7,17.5l9.1,5c0.2,0.1,0.6,0,0.7-0.2c0.1-0.2,0-0.6-0.2-0.7l-9.1-5c-0.2-0.2-0.6-0.1-0.7,0.2
		C843.4,17,843.4,17.3,843.7,17.5L843.7,17.5L843.7,17.5z"/>
	<path class="st3" d="M839.4,25.2l9.1,5.1c0.2,0.1,0.6,0.1,0.7-0.2l0,0c0.1-0.2,0-0.6-0.2-0.7l-9.1-5c-0.2-0.2-0.6-0.1-0.7,0.2
		C839.1,24.7,839.1,25,839.4,25.2L839.4,25.2L839.4,25.2z"/>
	<path class="st3" d="M835.1,32.9l9.1,5.1c0.2,0.1,0.6,0,0.7-0.2c0.1-0.2,0-0.6-0.2-0.7l-9.1-5c-0.2-0.2-0.6-0.1-0.7,0.2
		C834.8,32.4,834.8,32.7,835.1,32.9L835.1,32.9z"/>
	<path class="st3" d="M822.7,76.6l-9.1-5c-0.2-0.2-0.6-0.1-0.7,0.2s-0.1,0.6,0.2,0.7l0.1,0l9.1,5.1c0.2,0.1,0.6,0.1,0.7-0.2l0,0
		C823.1,77,823,76.7,822.7,76.6z"/>
	<path class="st3" d="M818.5,84.3l-9.1-5c-0.2-0.2-0.6-0.1-0.7,0.2c-0.2,0.2-0.1,0.6,0.2,0.7l0.1,0l9.1,5.1c0.2,0.1,0.6,0,0.7-0.2
		C818.8,84.7,818.7,84.4,818.5,84.3z"/>
	<path class="st3" d="M814.2,92l-9.1-5c-0.3-0.1-0.6,0-0.7,0.2c-0.1,0.3,0,0.6,0.2,0.7l9.1,5.1c0.2,0.1,0.6,0.1,0.7-0.2l0,0
		C814.5,92.5,814.4,92.1,814.2,92L814.2,92z"/>
	<path class="st3" d="M823,52.6c1.2-3.3,4.9-5,8.2-3.8s5,4.9,3.8,8.2c-1.2,3.3-4.9,5-8.2,3.8S821.8,55.9,823,52.6z"/>
	
		<rect x="859.8" y="28.1" transform="matrix(0.486 -0.8739 0.8739 0.486 380.4669 846.4637)" class="st7" width="100.2" height="143.3"/>
	
		<rect x="771.4" y="40.1" transform="matrix(0.4696 -0.8829 0.8829 0.4696 390.5088 760.4547)" class="st3" width="113.6" height="30.2"/>
	<path class="st7" d="M842.8,13.7l13.7,7.6c0.3,0.2,0.8,0.1,1-0.3l0,0l3.1-5.6c0.2-0.3,0.1-0.8-0.3-1l-13.7-7.6
		c-0.3-0.2-0.8-0.1-1,0.3l0,0l-3.1,5.6C842.3,13.1,842.5,13.5,842.8,13.7L842.8,13.7z M846.6,10.6l10.5,5.8c0.3,0.2,0.4,0.5,0.2,0.8
		c-0.2,0.3-0.5,0.4-0.8,0.2L846,11.7c-0.3-0.2-0.4-0.5-0.2-0.8C846,10.6,846.3,10.5,846.6,10.6z"/>
	<path class="st7" d="M837.9,22.6l13.7,7.6c0.3,0.2,0.8,0.1,1-0.3l3.1-5.6c0.2-0.3,0.1-0.8-0.3-1l0,0l-13.7-7.6
		c-0.3-0.2-0.8-0.1-1,0.3l0,0l-3.1,5.6C837.4,22,837.5,22.4,837.9,22.6L837.9,22.6z M841.6,19.5l10.5,5.8c0.3,0.2,0.4,0.5,0.2,0.8
		c-0.2,0.3-0.5,0.4-0.8,0.2l-10.5-5.8c-0.3-0.2-0.4-0.5-0.2-0.8C841,19.5,841.4,19.4,841.6,19.5z"/>
	<path class="st7" d="M832.9,31.5l13.7,7.6c0.3,0.2,0.8,0.1,1-0.3l3.1-5.6c0.2-0.3,0.1-0.8-0.3-1l-13.7-7.6c-0.3-0.2-0.8-0.1-1,0.3
		l-3.1,5.6C832.4,30.9,832.6,31.3,832.9,31.5z M836.7,28.5l10.5,5.8c0.3,0.2,0.4,0.5,0.2,0.8c-0.2,0.3-0.5,0.4-0.8,0.2l-10.5-5.8
		c-0.3-0.2-0.4-0.5-0.2-0.8C836,28.4,836.4,28.3,836.7,28.5z"/>
	<path class="st7" d="M825,78l-13.7-7.6c-0.3-0.2-0.8-0.1-1,0.3l-3.1,5.6c-0.2,0.3-0.1,0.8,0.3,1l13.7,7.6c0.3,0.2,0.8,0.1,1-0.3
		l0,0l3.1-5.6C825.5,78.6,825.3,78.2,825,78L825,78z M821.2,81l-10.5-5.8c-0.3-0.2-0.4-0.5-0.2-0.8c0.2-0.3,0.5-0.4,0.8-0.2
		l10.5,5.8c0.3,0.2,0.4,0.5,0.2,0.8C821.8,81.1,821.5,81.2,821.2,81z"/>
	<path class="st7" d="M820,86.9l-13.7-7.6c-0.3-0.2-0.8-0.1-1,0.3l0,0l-3.1,5.6c-0.2,0.3-0.1,0.8,0.3,1l0,0l13.7,7.6
		c0.3,0.2,0.8,0.1,1-0.3l0,0l3.1-5.6C820.5,87.5,820.4,87.1,820,86.9L820,86.9z M816.2,90l-10.5-5.8c-0.3-0.2-0.4-0.5-0.2-0.8
		c0.2-0.3,0.5-0.4,0.8-0.2l10.5,5.8c0.3,0.2,0.4,0.5,0.2,0.8C816.9,90,816.5,90.1,816.2,90z"/>
	<path class="st7" d="M815.1,95.8l-13.7-7.6c-0.3-0.2-0.8-0.1-1,0.3l0,0l-3.1,5.6c-0.2,0.3-0.1,0.8,0.3,1l13.7,7.6
		c0.3,0.2,0.8,0.1,1-0.3l0,0l3.1-5.6C815.5,96.4,815.4,96,815.1,95.8z M811.3,98.9L800.8,93c-0.3-0.2-0.4-0.5-0.2-0.8
		c0.2-0.3,0.5-0.4,0.8-0.2l10.5,5.8c0.3,0.2,0.4,0.5,0.2,0.8C811.9,98.9,811.6,99,811.3,98.9z"/>
	<path class="st7" d="M836.7,40.8c-7.7-4.3-17.4-1.5-21.6,6.2c-4.3,7.7-1.5,17.4,6.2,21.6c7.7,4.3,17.4,1.5,21.6-6.2l0,0
		C847.1,54.8,844.3,45.1,836.7,40.8z M825.3,61.2c-3.6-2-4.9-6.5-2.9-10.1c2-3.6,6.5-4.9,10.1-2.9c3.6,2,4.9,6.5,2.9,10.1
		C833.4,61.9,828.9,63.2,825.3,61.2L825.3,61.2z"/>
	<path class="st7" d="M1053.4,171.8c1-1.2,0.8-3-0.4-4c-1.2-1-2.9-0.8-3.9,0.3l-0.8,0.9l4.3,3.8L1053.4,171.8z"/>
	<path class="st7" d="M971.2,261.1c-0.1,0.2-0.1,0.4,0,0.6c0.2,0.1,0.4,0.1,0.6,0l0.8-1l-0.6-0.5L971.2,261.1z"/>
	<polygon class="st3" points="976.5,246.3 976.5,246.3 976.5,246.3 985.8,254.4 985.5,254.6 985.7,254.5 985.8,254.4 	"/>
	<polygon class="st3" points="975.3,248.3 975.3,248.3 972,260 972.1,260.1 972.7,260.7 972.8,260.7 983.9,255.9 985.4,254.7 
		985.5,254.6 976.3,246.6 	"/>
	<polygon class="st3" points="1052.6,174.4 1053.5,173.4 1052.6,172.7 1048.3,168.9 1047.4,168.2 1046.6,169.1 1052.6,174.4 	"/>
	<path class="st7" d="M1001.8,229.3c0.1-0.6-0.1-1.1-0.6-1.5c-0.2-0.2-0.5-0.3-0.7-0.4c-0.2,0-0.3-0.1-0.5,0c-0.2,0-0.4,0.1-0.6,0.2
		c-0.2,0.1-0.4,0.2-0.5,0.4l-12.6,14.5c-0.2,0.2-0.3,0.4-0.3,0.6c-0.1,0.2-0.1,0.4-0.1,0.6c0.1,0.9,0.9,1.6,1.8,1.6
		c0.1,0,0.2,0,0.3-0.1c0.1,0,0.2-0.1,0.3-0.1c0.2-0.1,0.4-0.2,0.5-0.4l12.6-14.5c0.1-0.1,0.1-0.2,0.2-0.3
		C1001.7,229.8,1001.8,229.6,1001.8,229.3z M989.1,243.7c-0.5,0.5-1.2,0.6-1.8,0.1c-0.5-0.5-0.6-1.2-0.1-1.8l3.6-4.2l1.9,1.6
		L989.1,243.7z M993.3,239l-1.9-1.6l7.3-8.3c0.5-0.5,1.2-0.6,1.8-0.1c0.5,0.5,0.6,1.2,0.1,1.8L993.3,239z"/>
	<path class="st3" d="M1000.4,228.9c-0.5-0.5-1.3-0.4-1.8,0.1l-7.3,8.3l1.9,1.6l7.3-8.3C1001,230.1,1000.9,229.3,1000.4,228.9
		L1000.4,228.9z"/>
	<path class="st3" d="M987.2,242.1c-0.5,0.5-0.4,1.3,0.1,1.8c0.5,0.5,1.3,0.4,1.8-0.1l3.6-4.2l-1.9-1.6L987.2,242.1z"/>
	<polygon class="st7" points="1022.2,210.8 1022.2,210.8 1052.6,174.4 1046.6,169.1 1014.6,204.3 	"/>
	<polygon class="st7" points="976.5,246.3 976.5,246.3 976.3,246.6 985.5,254.6 985.8,254.4 	"/>
	<path class="st3" d="M1022.2,210.8l-7.5-6.6l-38.2,42l9.3,8.1L1022.2,210.8L1022.2,210.8z M1001.4,230.3l-12.6,14.5
		c-0.2,0.2-0.3,0.3-0.5,0.4c-0.1,0-0.2,0.1-0.3,0.1c-0.5,0.1-1.1,0-1.6-0.4c-0.3-0.3-0.6-0.7-0.6-1.2c0-0.2,0-0.4,0.1-0.6
		c0.1-0.2,0.2-0.4,0.3-0.6l12.6-14.5c0.1-0.2,0.3-0.3,0.5-0.4c0.2-0.1,0.4-0.2,0.6-0.2c0.2,0,0.3,0,0.5,0c0.3,0.1,0.5,0.2,0.7,0.4
		c0.4,0.4,0.6,0.9,0.6,1.5c0,0.2-0.1,0.4-0.2,0.6C1001.6,230.1,1001.5,230.2,1001.4,230.3L1001.4,230.3z"/>
	<polygon class="st4" points="593.6,402.5 587.8,414.9 594.6,412.3 598.1,404.6 	"/>
	<polygon class="st5" points="602.7,406.7 598.1,404.6 594.6,412.3 597,419.2 	"/>
	<path class="st7" d="M717.6,271.9l-20.3-9.4L655,243.1L583.7,398l30.1,13.9l124.4-130.4L717.6,271.9z M591,395.1
		c-1.2-0.5-1.7-1.9-1.2-3.1c0.5-1.2,1.9-1.7,3.1-1.2c1.2,0.5,1.7,1.9,1.2,3.1l0,0C593.6,395.1,592.2,395.6,591,395.1z M595,386.3
		c-1.2-0.5-1.7-1.9-1.2-3.1c0.5-1.2,1.9-1.7,3.1-1.1c1.2,0.5,1.7,1.9,1.1,3.1v0C597.6,386.3,596.2,386.8,595,386.3z M599.1,377.5
		c-1.2-0.5-1.7-1.9-1.1-3.1c0.5-1.2,1.9-1.7,3.1-1.2c1.2,0.5,1.7,1.9,1.1,3.1l0,0C601.7,377.6,600.3,378.1,599.1,377.5L599.1,377.5z
		 M603.1,368.8c-1.2-0.5-1.7-1.9-1.2-3.1c0.5-1.2,1.9-1.7,3.1-1.2c1.2,0.5,1.7,1.9,1.2,3.1C605.7,368.8,604.3,369.3,603.1,368.8
		L603.1,368.8z M607.2,360c-1.2-0.5-1.7-1.9-1.2-3.1c0.5-1.2,1.9-1.7,3.1-1.1s1.7,1.9,1.1,3.1v0C609.7,360,608.3,360.5,607.2,360
		L607.2,360z M611.2,351.2c-1.2-0.5-1.7-1.9-1.2-3.1c0.5-1.2,1.9-1.7,3.1-1.1c1.2,0.5,1.7,1.9,1.1,3.1v0
		C613.8,351.2,612.4,351.8,611.2,351.2L611.2,351.2z M615.3,342.4c-1.2-0.5-1.7-1.9-1.1-3.1c0.5-1.2,1.9-1.7,3.1-1.2
		c1.2,0.5,1.7,1.9,1.1,3.1l0,0C617.8,342.5,616.4,343,615.3,342.4L615.3,342.4L615.3,342.4z M619.3,333.7c-1.2-0.5-1.7-1.9-1.1-3.1
		s1.9-1.7,3.1-1.1c1.2,0.5,1.7,1.9,1.2,3.1l0,0C621.9,333.7,620.5,334.2,619.3,333.7L619.3,333.7L619.3,333.7z M623.3,324.9
		c-1.2-0.5-1.7-1.9-1.2-3.1s1.9-1.7,3.1-1.1s1.7,1.9,1.1,3.1v0C625.9,324.9,624.5,325.5,623.3,324.9L623.3,324.9L623.3,324.9z
		 M627.4,316.1c-1.2-0.5-1.7-1.9-1.1-3.1c0.5-1.2,1.9-1.7,3.1-1.1c1.2,0.5,1.7,1.9,1.2,3.1l0,0C629.9,316.1,628.5,316.7,627.4,316.1
		z M631.4,307.3c-1.2-0.5-1.7-1.9-1.2-3.1c0.5-1.2,1.9-1.7,3.1-1.1c1.2,0.5,1.7,1.9,1.1,3.1v0C634,307.4,632.6,307.9,631.4,307.3
		L631.4,307.3L631.4,307.3z M635.4,298.6c-1.2-0.5-1.7-1.9-1.1-3.1c0.5-1.2,1.9-1.7,3.1-1.1c1.2,0.5,1.7,1.9,1.1,3.1v0
		C638,298.6,636.6,299.1,635.4,298.6L635.4,298.6L635.4,298.6z M639.5,289.8c-1.2-0.5-1.7-1.9-1.1-3.1s1.9-1.7,3.1-1.1
		c1.2,0.5,1.7,1.9,1.2,3.1l0,0C642.1,289.8,640.7,290.4,639.5,289.8L639.5,289.8L639.5,289.8z M643.5,281c-1.2-0.5-1.7-1.9-1.2-3.1
		s1.9-1.7,3.1-1.1c1.2,0.5,1.7,1.9,1.1,3.1v0C646.1,281.1,644.7,281.6,643.5,281L643.5,281z M647.5,272.3c-1.2-0.5-1.7-1.9-1.1-3.1
		c0.5-1.2,1.9-1.7,3.1-1.1c1.2,0.5,1.7,1.9,1.2,3.1l0,0C650.1,272.3,648.7,272.8,647.5,272.3L647.5,272.3z M651.6,263.5
		c-1.2-0.5-1.7-1.9-1.2-3.1c0.5-1.2,1.9-1.7,3.1-1.1s1.7,1.9,1.2,3.1l0,0C654.2,263.5,652.8,264,651.6,263.5L651.6,263.5z
		 M655.6,254.7c-1.2-0.5-1.7-1.9-1.2-3.1c0.5-1.2,1.9-1.7,3.1-1.2c1.2,0.5,1.7,1.9,1.2,3.1C658.2,254.8,656.8,255.3,655.6,254.7
		L655.6,254.7z"/>
	<path class="st3" d="M646.2,426.8l35.8,16.5c3.5,1.6,7.7,0.1,9.4-3.4l65.5-142.1c1.6-3.5,0.1-7.7-3.5-9.3l-15.2-7L613.8,411.9
		l12.1,5.6L646.2,426.8z"/>
	<path class="st1" d="M667.4,289.7l48.9,22.5c0.9,0.4,1.2,1.4,0.8,2.3l-6.1,13.3c-0.4,0.9-1.4,1.2-2.3,0.8l-48.9-22.5
		c-0.9-0.4-1.2-1.4-0.8-2.3l6.1-13.3C665.5,289.7,666.6,289.3,667.4,289.7z"/>
	<path class="st2" d="M712.1,316.3L667,295.5c-0.3-0.2-0.5-0.6-0.3-0.9l0,0c0.2-0.3,0.6-0.5,0.9-0.3l45.1,20.7
		c0.3,0.2,0.5,0.6,0.3,0.9C712.8,316.3,712.4,316.4,712.1,316.3z"/>
	<path class="st2" d="M710.3,320.1l-45.1-20.7c-0.3-0.2-0.5-0.6-0.3-0.9c0.2-0.3,0.6-0.5,0.9-0.3l45.1,20.7c0.3,0.2,0.5,0.6,0.3,0.9
		l0,0C711.1,320.2,710.7,320.3,710.3,320.1L710.3,320.1z"/>
	<path class="st2" d="M708.6,324l-45.1-20.8c-0.3-0.2-0.5-0.6-0.3-0.9l0,0c0.2-0.3,0.6-0.5,0.9-0.3l45.1,20.8
		c0.3,0.2,0.5,0.6,0.3,0.9C709.3,324,708.9,324.2,708.6,324L708.6,324z"/>
	<path class="st3" d="M657.1,252.5l-11.2-5.1c-0.2-0.1-0.3-0.4-0.2-0.6v0c0.1-0.2,0.4-0.3,0.6-0.2l0,0l11.2,5.1
		c0.2,0.1,0.3,0.4,0.2,0.6C657.6,252.5,657.3,252.6,657.1,252.5z"/>
	<path class="st3" d="M656.5,253.8l-11.2-5.1c-0.2-0.1-0.3-0.4-0.2-0.6c0.1-0.2,0.4-0.3,0.6-0.2l0,0l11.2,5.1
		c0.2,0.1,0.3,0.4,0.2,0.6C656.9,253.8,656.7,253.9,656.5,253.8z"/>
	<path class="st3" d="M653.1,261.3l-11.2-5.1c-0.2-0.1-0.3-0.4-0.2-0.6l0,0c0.1-0.2,0.4-0.3,0.6-0.2l11.2,5.1
		c0.2,0.1,0.3,0.4,0.2,0.6C653.5,261.3,653.3,261.4,653.1,261.3z"/>
	<path class="st3" d="M652.4,262.6l-11.2-5.1c-0.2-0.1-0.3-0.4-0.2-0.6c0.1-0.2,0.4-0.3,0.6-0.2l0,0l11.2,5.1
		c0.2,0.1,0.3,0.4,0.2,0.6C652.9,262.6,652.7,262.7,652.4,262.6L652.4,262.6z"/>
	<path class="st3" d="M649,270l-11.1-5.1c-0.2-0.1-0.3-0.4-0.2-0.6v0c0.1-0.2,0.4-0.3,0.6-0.2l0,0l11.2,5.1c0.2,0.1,0.3,0.4,0.2,0.6
		C649.5,270,649.2,270.1,649,270L649,270z"/>
	<path class="st3" d="M648.4,271.4l-11.2-5.1c-0.2-0.1-0.3-0.4-0.2-0.6l0,0c0.1-0.2,0.4-0.3,0.6-0.2l11.2,5.1
		c0.2,0.1,0.3,0.4,0.2,0.6l0,0C648.9,271.4,648.6,271.5,648.4,271.4L648.4,271.4z"/>
	<path class="st3" d="M645,278.8l-11.2-5.1c-0.2-0.1-0.3-0.4-0.2-0.6v0c0.1-0.2,0.4-0.3,0.6-0.2l0,0l11.2,5.1
		c0.2,0.1,0.3,0.4,0.2,0.6C645.4,278.8,645.2,278.9,645,278.8L645,278.8z"/>
	<path class="st3" d="M644.4,280.1l-11.2-5.1c-0.2-0.1-0.3-0.4-0.2-0.6l0,0c0.1-0.2,0.4-0.3,0.6-0.2l0,0l11.2,5.1
		c0.2,0.1,0.3,0.4,0.2,0.6C644.8,280.1,644.6,280.2,644.4,280.1z"/>
	<path class="st3" d="M640.9,287.6l-11.2-5.1c-0.2-0.1-0.3-0.4-0.2-0.6c0.1-0.2,0.4-0.3,0.6-0.2l11.2,5.1c0.2,0.1,0.3,0.4,0.2,0.6
		C641.4,287.6,641.2,287.7,640.9,287.6z"/>
	<path class="st3" d="M629.5,283l11.3,5.2c0.2,0.1,0.3,0.3,0.2,0.5l-0.1,0.1c-0.1,0.2-0.3,0.3-0.5,0.2l-11.3-5.2
		c-0.2-0.1-0.3-0.3-0.2-0.5l0.1-0.1C629.1,283,629.3,282.9,629.5,283z"/>
	<path class="st3" d="M636.9,296.3l-11.2-5.1c-0.2-0.1-0.3-0.4-0.2-0.6c0.1-0.2,0.4-0.3,0.6-0.2l0,0l11.2,5.1
		c0.2,0.1,0.3,0.4,0.2,0.6C637.4,296.3,637.1,296.4,636.9,296.3z"/>
	<path class="st3" d="M636.3,297.7l-11.2-5.1c-0.2-0.1-0.3-0.4-0.2-0.6l0,0c0.1-0.2,0.4-0.3,0.6-0.2l11.2,5.1
		c0.2,0.1,0.3,0.4,0.2,0.6C636.7,297.7,636.5,297.8,636.3,297.7z"/>
	<path class="st3" d="M632.9,305.1l-11.2-5.1c-0.2-0.1-0.3-0.4-0.2-0.6c0.1-0.2,0.4-0.3,0.6-0.2l11.2,5.1c0.2,0.1,0.3,0.4,0.2,0.6
		C633.3,305.1,633.1,305.2,632.9,305.1L632.9,305.1z"/>
	<path class="st3" d="M632.2,306.5l-11.2-5.1c-0.2-0.1-0.3-0.3-0.2-0.6l0,0c0.1-0.2,0.4-0.3,0.6-0.2l11.2,5.1
		c0.2,0.1,0.3,0.4,0.2,0.6C632.7,306.5,632.5,306.6,632.2,306.5L632.2,306.5z"/>
	<path class="st3" d="M628.8,313.9l-11.2-5.1c-0.2-0.1-0.3-0.4-0.2-0.6c0.1-0.2,0.4-0.3,0.6-0.2l11.2,5.2c0.2,0.1,0.3,0.4,0.2,0.6
		C629.3,313.9,629,314,628.8,313.9z"/>
	<path class="st3" d="M628.2,315.2l-11.2-5.1c-0.2-0.1-0.3-0.4-0.2-0.6l0,0c0.1-0.2,0.4-0.3,0.6-0.2l0,0l11.2,5.1
		c0.2,0.1,0.3,0.4,0.2,0.6C628.7,315.2,628.4,315.3,628.2,315.2L628.2,315.2z"/>
	<path class="st3" d="M624.8,322.7l-11.2-5.1c-0.2-0.1-0.3-0.4-0.2-0.6c0.1-0.2,0.4-0.3,0.6-0.2l0,0l11.2,5.1
		c0.2,0.1,0.3,0.4,0.2,0.6C625.2,322.7,625,322.8,624.8,322.7z"/>
	<path class="st3" d="M624.2,324l-11.2-5.1c-0.2-0.1-0.3-0.4-0.2-0.6l0,0c0.1-0.2,0.4-0.3,0.6-0.2l0,0l11.2,5.1
		c0.2,0.1,0.3,0.4,0.2,0.6C624.6,324,624.4,324.1,624.2,324z"/>
	<path class="st3" d="M620.7,331.4l-11.2-5.1c-0.2-0.1-0.3-0.4-0.2-0.6c0.1-0.2,0.4-0.3,0.6-0.2l0,0l11.2,5.1
		c0.2,0.1,0.3,0.4,0.2,0.6l0,0C621.2,331.4,621,331.5,620.7,331.4L620.7,331.4z"/>
	<path class="st3" d="M620.1,332.8l-11.2-5.1c-0.2-0.1-0.3-0.4-0.2-0.6c0.1-0.2,0.4-0.3,0.6-0.2l11.2,5.1c0.2,0.1,0.3,0.4,0.2,0.6
		C620.6,332.8,620.3,332.9,620.1,332.8z"/>
	<path class="st3" d="M616.7,340.2l-11.2-5.1c-0.2-0.1-0.3-0.4-0.2-0.6c0.1-0.2,0.4-0.3,0.6-0.2l11.2,5.1c0.2,0.1,0.3,0.4,0.2,0.6
		l0,0C617.2,340.2,616.9,340.3,616.7,340.2z"/>
	<path class="st3" d="M616.1,341.5l-11.2-5.1c-0.2-0.1-0.3-0.4-0.2-0.6c0.1-0.2,0.4-0.3,0.6-0.2l0,0l11.2,5.1
		c0.2,0.1,0.3,0.4,0.2,0.6C616.6,341.5,616.3,341.6,616.1,341.5z"/>
	<path class="st3" d="M612.7,349l-11.2-5.1c-0.2-0.1-0.3-0.4-0.2-0.6c0.1-0.2,0.4-0.3,0.6-0.2l11.2,5.1c0.2,0.1,0.3,0.4,0.2,0.6l0,0
		C613.1,349,612.9,349.1,612.7,349L612.7,349z"/>
	<path class="st3" d="M612,350.3l-11.2-5.1c-0.2-0.1-0.3-0.4-0.2-0.6c0.1-0.2,0.4-0.3,0.6-0.2l11.2,5.2c0.2,0.1,0.3,0.4,0.2,0.6
		C612.5,350.3,612.3,350.4,612,350.3z"/>
	<path class="st3" d="M608.6,357.7l-11.2-5.1c-0.2-0.1-0.3-0.4-0.2-0.6c0.1-0.2,0.4-0.3,0.6-0.2l0,0L609,357
		c0.2,0.1,0.3,0.4,0.2,0.6l0,0C609.1,357.7,608.8,357.8,608.6,357.7z"/>
	<path class="st3" d="M608,359.1l-11.2-5.1c-0.2-0.1-0.3-0.4-0.2-0.6c0.1-0.2,0.4-0.3,0.6-0.2l11.2,5.1c0.2,0.1,0.3,0.4,0.2,0.6
		C608.5,359.1,608.2,359.2,608,359.1z"/>
	<path class="st3" d="M593.7,360.6l11.3,5.2c0.2,0.1,0.3,0.3,0.2,0.5l-0.1,0.1c-0.1,0.2-0.3,0.3-0.5,0.2l-11.3-5.2
		c-0.2-0.1-0.3-0.3-0.2-0.5l0.1-0.1C593.3,360.6,593.5,360.5,593.7,360.6z"/>
	<path class="st3" d="M604,367.8l-11.1-5.1c-0.2-0.1-0.3-0.4-0.2-0.6c0.1-0.2,0.4-0.3,0.6-0.2h0l11.2,5.1c0.2,0.1,0.3,0.4,0.2,0.6
		C604.5,367.9,604.2,368,604,367.8L604,367.8z"/>
	<path class="st3" d="M600.5,375.3l-11.2-5.1c-0.2-0.1-0.3-0.4-0.2-0.6l0,0c0.1-0.2,0.4-0.3,0.6-0.2l11.2,5.1
		c0.2,0.1,0.3,0.4,0.2,0.6l0,0C601,375.3,600.8,375.4,600.5,375.3z"/>
	<path class="st3" d="M599.9,376.6l-11.2-5.1c-0.2-0.1-0.3-0.4-0.2-0.6c0.1-0.2,0.4-0.3,0.6-0.2l11.2,5.1c0.2,0.1,0.3,0.4,0.2,0.6
		l0,0C600.4,376.6,600.1,376.7,599.9,376.6L599.9,376.6z"/>
	<path class="st3" d="M596.5,384.1l-11.2-5.1c-0.2-0.1-0.3-0.4-0.2-0.6c0.1-0.2,0.4-0.3,0.6-0.2h0l11.2,5.1c0.2,0.1,0.3,0.4,0.2,0.6
		v0C597,384.1,596.7,384.2,596.5,384.1L596.5,384.1z"/>
	<path class="st3" d="M595.9,385.4l-11.2-5.1c-0.2-0.1-0.3-0.4-0.2-0.6c0.1-0.2,0.4-0.3,0.6-0.2l11.2,5.1c0.2,0.1,0.3,0.4,0.2,0.6
		l0,0C596.4,385.4,596.1,385.5,595.9,385.4z"/>
	<path class="st3" d="M592.4,392.8l-11.2-5.1c-0.2-0.1-0.3-0.4-0.2-0.6c0.1-0.2,0.4-0.3,0.6-0.2l11.2,5.1c0.2,0.1,0.3,0.4,0.2,0.6
		C592.9,392.8,592.7,392.9,592.4,392.8L592.4,392.8z"/>
	<path class="st3" d="M591.8,394.2l-11.2-5.1c-0.2-0.1-0.3-0.4-0.2-0.6c0.1-0.2,0.4-0.3,0.6-0.2h0l11.2,5.1c0.2,0.1,0.3,0.4,0.2,0.6
		v0C592.3,394.2,592.1,394.3,591.8,394.2L591.8,394.2z"/>
	<path class="st1" d="M53.2,317.9l-14,32.4L43,352l15.6-36.2C56.5,314.9,54.1,315.8,53.2,317.9L53.2,317.9z"/>
	<path class="st2" d="M60.8,321.2c0.9-2.1-0.1-4.5-2.2-5.5l0,0L43,352l3.8,1.7L60.8,321.2z"/>
	<path class="st3" d="M52.4,331.6l-2.2,5c1.5,0.3,3-0.7,3.3-2.2C53.8,333.4,53.3,332.3,52.4,331.6z"/>
	<path class="st7" d="M48.3,332.8c-0.5,1.2-0.1,2.6,0.9,3.4l2.2-5C50,330.9,48.8,331.6,48.3,332.8z"/>
	<path class="st7" d="M39.2,350.4l14-32.4c0.9-2.1,3.4-3.1,5.5-2.2l0,0l0.3-0.7l-11.7-5l-3.9,9c0,0,2.2,3.1,0.1,7.8l-2.8,6.5
		c-2,4.7-5.8,5.3-5.8,5.3l-3.9,9l11.7,5L43,352L39.2,350.4z"/>
	<path class="st3" d="M48.8,355.3l5.6,2.4l3.9-9c0,0-2.2-3.1-0.1-7.8l2.8-6.5c2-4.7,5.8-5.3,5.8-5.3l3.9-9l-5.6-2.4l-3.4-1.5
		l-2.6-1.1l-0.3,0.7c2.1,0.9,3.1,3.3,2.2,5.5l0,0l-14,32.4L43,352l-0.3,0.7l2.6,1.1L48.8,355.3z"/>
	<path class="st2" d="M117.3,341.8c-0.2-0.3-0.3-0.6-0.5-1C117,341.1,117.1,341.5,117.3,341.8z"/>
	<path class="st2" d="M115.4,329.6c0.1-0.4,0.1-0.8,0.2-1.1C115.5,328.9,115.5,329.3,115.4,329.6z"/>
	<path class="st2" d="M116.3,339.5c-0.1-0.3-0.3-0.7-0.4-1C116,338.8,116.1,339.2,116.3,339.5z"/>
	<path class="st2" d="M115.3,336c-0.1-0.4-0.1-0.7-0.1-1.1C115.2,335.2,115.3,335.6,115.3,336z"/>
	<path class="st2" d="M115.2,330.8c0-0.3,0.1-0.6,0.1-0.9C115.3,330.2,115.2,330.5,115.2,330.8z"/>
	<path class="st2" d="M115.1,332.3c0-0.4,0-0.8,0.1-1.1C115.1,331.5,115.1,331.9,115.1,332.3z"/>
	<path class="st2" d="M115.1,333.4c0-0.3,0-0.6,0-0.9C115.1,332.8,115.1,333.1,115.1,333.4z"/>
	<path class="st2" d="M116.7,340.6c-0.1-0.3-0.2-0.5-0.3-0.8C116.5,340,116.6,340.3,116.7,340.6z"/>
	<path class="st2" d="M115.2,334.7c0-0.3,0-0.6-0.1-0.9C115.1,334,115.1,334.4,115.2,334.7z"/>
	<path class="st2" d="M115.9,338.5c-0.1-0.3-0.2-0.7-0.3-1.1C115.7,337.7,115.8,338.1,115.9,338.5z"/>
	<path class="st2" d="M115.5,337.1c-0.1-0.3-0.1-0.6-0.2-0.8C115.4,336.5,115.5,336.8,115.5,337.1z"/>
	<path class="st2" d="M152.6,291.3c0.2,0.2,0.4,0.4,0.6,0.5C153,291.7,152.8,291.5,152.6,291.3z"/>
	<path class="st2" d="M155,293.9c0.2,0.2,0.3,0.5,0.5,0.7C155.4,294.3,155.2,294.1,155,293.9z"/>
	<path class="st2" d="M156.3,295.7c0.2,0.3,0.4,0.6,0.5,0.9C156.7,296.3,156.5,296,156.3,295.7z"/>
	<path class="st2" d="M156.9,296.7c0.1,0.3,0.3,0.6,0.4,0.8C157.2,297.3,157.1,297,156.9,296.7z"/>
	<path class="st2" d="M117.9,342.8c-0.2-0.3-0.3-0.5-0.5-0.8C117.6,342.2,117.7,342.5,117.9,342.8z"/>
	<path class="st2" d="M155.7,294.8c0.2,0.2,0.3,0.4,0.4,0.7C156,295.3,155.9,295,155.7,294.8z"/>
	<path class="st2" d="M121.1,346.6c-0.3-0.3-0.5-0.5-0.8-0.8c2.4,2.5,5.5,4.2,8.8,5.1c9.9,2.5,20-3.6,22.5-13.5l6.9-27.6
		c0.8-3.3,0.7-6.7-0.3-10L121.1,346.6z"/>
	<path class="st2" d="M157.4,297.9c0.1,0.2,0.2,0.5,0.3,0.8C157.7,298.4,157.6,298.1,157.4,297.9z"/>
	<path class="st2" d="M129.2,290.7c0.3-0.3,0.7-0.5,1-0.8C129.9,290.2,129.5,290.4,129.2,290.7z"/>
	<path class="st2" d="M157.9,298.9c0.1,0.3,0.2,0.7,0.3,1C158.1,299.5,158,299.2,157.9,298.9z"/>
	<path class="st2" d="M146.1,287.7c-0.4-0.1-0.7-0.2-1.1-0.3c-3.3-0.8-6.7-0.7-10,0.3c3.2-1,6.7-1.1,10-0.3
		C145.4,287.5,145.7,287.6,146.1,287.7z"/>
	<path class="st2" d="M146.4,287.8c0.3,0.1,0.5,0.2,0.8,0.3C146.9,288,146.7,287.9,146.4,287.8z"/>
	<path class="st2" d="M154.2,292.9c0.2,0.3,0.5,0.5,0.7,0.8C154.7,293.4,154.5,293.2,154.2,292.9z"/>
	<path class="st2" d="M131,289.5c0.7-0.4,1.3-0.7,2-1C132.3,288.7,131.6,289.1,131,289.5z"/>
	<path class="st2" d="M147.5,288.2c0.3,0.1,0.6,0.2,0.9,0.4C148.1,288.4,147.8,288.3,147.5,288.2z"/>
	<path class="st2" d="M133.7,288.1c0.4-0.2,0.9-0.3,1.3-0.5C134.6,287.8,134.1,288,133.7,288.1z"/>
	<path class="st2" d="M153.5,292.1c0.2,0.2,0.4,0.4,0.6,0.6C153.9,292.5,153.7,292.3,153.5,292.1z"/>
	<path class="st2" d="M150.7,289.9c0.2,0.2,0.5,0.3,0.7,0.5C151.2,290.2,150.9,290,150.7,289.9z"/>
	<path class="st2" d="M149.7,289.3c0.2,0.1,0.5,0.3,0.7,0.4C150.2,289.6,150,289.4,149.7,289.3z"/>
	<path class="st2" d="M148.5,288.6c0.3,0.2,0.6,0.3,1,0.5C149.1,289,148.8,288.8,148.5,288.6z"/>
	<path class="st2" d="M151.6,290.5c0.3,0.2,0.6,0.4,0.8,0.7C152.2,290.9,151.9,290.7,151.6,290.5z"/>
	<path class="st2" d="M120.1,345.6c-0.2-0.2-0.4-0.4-0.6-0.6C119.7,345.2,119.9,345.4,120.1,345.6z"/>
	<path class="st2" d="M119.3,344.8c-0.2-0.3-0.5-0.6-0.7-0.9C118.9,344.2,119.1,344.5,119.3,344.8z"/>
	<path class="st2" d="M118.6,343.8c-0.2-0.3-0.4-0.5-0.5-0.8C118.2,343.3,118.4,343.5,118.6,343.8z"/>
	<path class="st1" d="M158.2,299.9L158.2,299.9c-0.1-0.3-0.2-0.7-0.3-1l-0.1-0.3c-0.1-0.2-0.2-0.5-0.3-0.8c0-0.1-0.1-0.2-0.1-0.3
		c-0.1-0.3-0.3-0.6-0.4-0.8l-0.1-0.1c-0.2-0.3-0.3-0.6-0.5-0.9l-0.1-0.2c-0.1-0.2-0.3-0.5-0.4-0.7l-0.2-0.3
		c-0.2-0.2-0.3-0.5-0.5-0.7l-0.1-0.2c-0.2-0.3-0.5-0.5-0.7-0.8l-0.2-0.2c-0.2-0.2-0.4-0.4-0.6-0.6l-0.2-0.2
		c-0.2-0.2-0.4-0.4-0.6-0.5l-0.2-0.2c-0.3-0.2-0.6-0.5-0.8-0.7l-0.2-0.1c-0.2-0.2-0.5-0.3-0.7-0.5l-0.3-0.2
		c-0.2-0.1-0.5-0.3-0.7-0.4l-0.3-0.2c-0.3-0.2-0.6-0.3-1-0.5l-0.1-0.1c-0.3-0.1-0.6-0.3-0.9-0.4c-0.1,0-0.2-0.1-0.3-0.1
		c-0.3-0.1-0.5-0.2-0.8-0.3l-0.3-0.1c-0.4-0.1-0.7-0.2-1.1-0.3c-3.3-0.8-6.7-0.7-10,0.3c-0.5,0.1-0.9,0.3-1.3,0.5
		c-0.2,0.1-0.5,0.2-0.7,0.3c-0.7,0.3-1.4,0.7-2,1c-0.3,0.1-0.5,0.3-0.8,0.5c-0.4,0.2-0.7,0.5-1,0.8c-2.3,1.8-4.2,4-5.4,6.6
		c-0.5,1.1-1,2.3-1.3,3.5l-6.9,27.6c-0.1,0.4-0.2,0.8-0.2,1.1c0,0.1,0,0.2-0.1,0.3c-0.1,0.3-0.1,0.6-0.1,0.9l0,0.3
		c0,0.4-0.1,0.8-0.1,1.1v0.2c0,0.3,0,0.6,0,0.9v0.3c0,0.3,0,0.6,0.1,0.9v0.2c0,0.4,0.1,0.7,0.1,1.1c0,0.1,0,0.2,0,0.3
		c0.1,0.3,0.1,0.6,0.2,0.8c0,0.1,0,0.2,0.1,0.3c0.1,0.4,0.2,0.7,0.3,1.1c0.1,0.3,0.2,0.7,0.4,1c0,0.1,0.1,0.2,0.1,0.3
		c0.1,0.3,0.2,0.5,0.3,0.8l0.1,0.2c0.2,0.3,0.3,0.7,0.5,1l0.1,0.2c0.2,0.3,0.3,0.5,0.5,0.8l0.2,0.3c0.2,0.3,0.3,0.5,0.5,0.8l0.1,0.1
		c0.2,0.3,0.4,0.6,0.7,0.9l0.2,0.2c0.2,0.2,0.4,0.4,0.6,0.6l0.2,0.2c0.3,0.3,0.5,0.5,0.8,0.8L158.2,299.9z M139.8,299.4
		c0.3-1,1.3-1.7,2.4-1.4l0,0l0.4,0.1c1.1,0.3,1.7,1.3,1.4,2.4l-1.9,7.6c-0.3,1-1.3,1.7-2.4,1.4l0,0l-0.4-0.1
		c-1.1-0.3-1.7-1.3-1.4-2.4v0L139.8,299.4z"/>
	<path class="st2" d="M137.9,306.9l1.9-7.6c0.3-1,1.3-1.7,2.4-1.4l0.4,0.1c1.1,0.3,1.7,1.3,1.4,2.4l-1.9,7.6
		c-0.3,1.1-1.3,1.7-2.4,1.4l-0.4-0.1C138.2,309.1,137.6,308,137.9,306.9z"/>
	<path class="st2" d="M-38.2,752.5l287.4-101.2L195,497.7L-38.2,752.5z M201.6,629.8L91.2,668.7l89.6-97.9L201.6,629.8z"/>
	<path class="st1" d="M-30,747.1l224.1-244.9l52,147.7L-30,747.1z M180,568.5c-0.4,0.1-0.7,0.3-1,0.6l-89.6,97.9
		c-0.9,1-0.8,2.5,0.2,3.4c0.6,0.6,1.6,0.8,2.4,0.5L202.4,632c1.2-0.4,1.9-1.8,1.5-3l0,0L183,570c-0.3-0.8-0.9-1.4-1.8-1.5
		C180.8,568.3,180.4,568.4,180,568.5L180,568.5z"/>
	
		<rect x="245.1" y="642.5" transform="matrix(0.9429 -0.3329 0.3329 0.9429 -201.3684 118.6506)" class="st2" width="0.8" height="8.7"/>
	
		<rect x="243.6" y="646.8" transform="matrix(0.9433 -0.3319 0.3319 0.9433 -201.6523 117.7897)" class="st2" width="0.8" height="5.1"/>
	
		<rect x="241.6" y="647.5" transform="matrix(0.9433 -0.3319 0.3319 0.9433 -202.0106 117.1465)" class="st2" width="0.8" height="5.1"/>
	
		<rect x="239.5" y="648.2" transform="matrix(0.9433 -0.3319 0.3319 0.9433 -202.3696 116.501)" class="st2" width="0.8" height="5.1"/>
	
		<rect x="236.8" y="645.4" transform="matrix(0.9429 -0.3329 0.3329 0.9429 -202.8092 116.0649)" class="st2" width="0.8" height="8.7"/>
	
		<rect x="235.4" y="649.7" transform="matrix(0.9433 -0.3319 0.3319 0.9433 -203.0866 115.2131)" class="st2" width="0.8" height="5.1"/>
	
		<rect x="233.3" y="650.4" transform="matrix(0.9433 -0.3319 0.3319 0.9433 -203.4451 114.5687)" class="st2" width="0.8" height="5.1"/>
	
		<rect x="231.3" y="651.1" transform="matrix(0.9433 -0.3319 0.3319 0.9433 -203.8036 113.9243)" class="st2" width="0.8" height="5.1"/>
	
		<rect x="228.6" y="648.4" transform="matrix(0.9429 -0.3329 0.3329 0.9429 -204.2495 113.4804)" class="st2" width="0.8" height="8.7"/>
	
		<rect x="227.2" y="652.6" transform="matrix(0.9429 -0.3329 0.3329 0.9429 -205.1239 113.165)" class="st2" width="0.8" height="5.1"/>
	
		<rect x="225.2" y="653.3" transform="matrix(0.9429 -0.3329 0.3329 0.9429 -205.484 112.5187)" class="st2" width="0.8" height="5.1"/>
	
		<rect x="223.1" y="654" transform="matrix(0.9433 -0.3319 0.3319 0.9433 -205.2191 111.3818)" class="st2" width="0.8" height="5.1"/>
	
		<rect x="220.4" y="651.2" transform="matrix(0.9433 -0.3319 0.3319 0.9433 -205.0467 110.4416)" class="st2" width="0.8" height="8.7"/>
	
		<rect x="219" y="655.5" transform="matrix(0.9433 -0.3319 0.3319 0.9433 -205.936 110.0939)" class="st2" width="0.8" height="5.1"/>
	
		<rect x="216.9" y="656.2" transform="matrix(0.9433 -0.3319 0.3319 0.9433 -206.2945 109.4495)" class="st2" width="0.8" height="5.1"/>
	
		<rect x="214.8" y="656.9" transform="matrix(0.9433 -0.3319 0.3319 0.9433 -206.6537 108.8039)" class="st2" width="0.8" height="5.1"/>
	
		<rect x="212.2" y="654.1" transform="matrix(0.9433 -0.3319 0.3319 0.9433 -206.4799 107.8636)" class="st2" width="0.8" height="8.7"/>
	
		<rect x="210.8" y="658.3" transform="matrix(0.9429 -0.3329 0.3329 0.9429 -207.9858 108.0303)" class="st2" width="0.8" height="5.1"/>
	
		<rect x="208.7" y="659.1" transform="matrix(0.9429 -0.3331 0.3331 0.9429 -208.4581 107.4684)" class="st2" width="0.8" height="5.1"/>
	
		<rect x="206.7" y="659.8" transform="matrix(0.9429 -0.3329 0.3329 0.9429 -208.7058 106.7387)" class="st2" width="0.8" height="5.1"/>
	
		<rect x="204" y="657" transform="matrix(0.9433 -0.3319 0.3319 0.9433 -207.8948 105.3221)" class="st2" width="0.8" height="8.7"/>
	
		<rect x="202.6" y="661.3" transform="matrix(0.9433 -0.3319 0.3319 0.9433 -208.7869 104.9739)" class="st2" width="0.8" height="5.1"/>
	
		<rect x="200.5" y="662" transform="matrix(0.9429 -0.3329 0.3329 0.9429 -209.7865 104.7995)" class="st2" width="0.8" height="5.1"/>
	
		<rect x="198.4" y="662.7" transform="matrix(0.9429 -0.3329 0.3329 0.9429 -210.1466 104.1531)" class="st2" width="0.8" height="5.1"/>
	
		<rect x="195.8" y="659.9" transform="matrix(0.9433 -0.3319 0.3319 0.9433 -209.3294 102.7443)" class="st2" width="0.8" height="8.7"/>
	
		<rect x="194.4" y="664.1" transform="matrix(0.9433 -0.3319 0.3319 0.9433 -210.2024 102.4314)" class="st2" width="0.8" height="5.1"/>
	
		<rect x="192.3" y="664.9" transform="matrix(0.9429 -0.3329 0.3329 0.9429 -211.2079 102.249)" class="st2" width="0.8" height="5.1"/>
	
		<rect x="190.3" y="665.6" transform="matrix(0.9429 -0.3329 0.3329 0.9429 -211.5678 101.604)" class="st2" width="0.8" height="5.1"/>
	
		<rect x="187.6" y="662.8" transform="matrix(0.9433 -0.3321 0.3321 0.9433 -210.8588 100.2833)" class="st2" width="0.8" height="8.7"/>
	
		<rect x="186.1" y="667" transform="matrix(0.9429 -0.3329 0.3329 0.9429 -212.2885 100.3101)" class="st2" width="0.8" height="5.1"/>
	
		<rect x="184.1" y="667.8" transform="matrix(0.9433 -0.3319 0.3319 0.9433 -211.9952 99.2104)" class="st2" width="0.8" height="5.1"/>
	
		<rect x="182" y="668.5" transform="matrix(0.9429 -0.3329 0.3329 0.9429 -213.0086 99.0182)" class="st2" width="0.8" height="5.1"/>
	
		<rect x="179.3" y="665.7" transform="matrix(0.9433 -0.3319 0.3319 0.9433 -212.18 97.6257)" class="st2" width="0.8" height="8.7"/>
	
		<rect x="178" y="669.9" transform="matrix(0.9429 -0.3329 0.3329 0.9429 -213.7097 97.7609)" class="st2" width="0.8" height="5.1"/>
	
		<rect x="175.9" y="670.6" transform="matrix(0.9429 -0.3329 0.3329 0.9429 -214.0698 97.1143)" class="st2" width="0.8" height="5.1"/>
	
		<rect x="173.9" y="671.4" transform="matrix(0.9429 -0.3329 0.3329 0.9429 -214.4297 96.4691)" class="st2" width="0.8" height="5.1"/>
	
		<rect x="171.2" y="668.6" transform="matrix(0.9433 -0.3319 0.3319 0.9433 -213.5956 95.0831)" class="st2" width="0.8" height="8.7"/>
	
		<rect x="169.7" y="672.8" transform="matrix(0.9429 -0.3329 0.3329 0.9429 -215.1505 95.1754)" class="st2" width="0.8" height="5.1"/>
	
		<rect x="167.7" y="673.5" transform="matrix(0.9429 -0.3329 0.3329 0.9429 -215.5104 94.5303)" class="st2" width="0.8" height="5.1"/>
	
		<rect x="165.6" y="674.3" transform="matrix(0.9429 -0.3329 0.3329 0.9429 -215.8705 93.8835)" class="st2" width="0.8" height="5.1"/>
	
		<rect x="162.9" y="671.5" transform="matrix(0.9433 -0.3319 0.3319 0.9433 -215.0295 92.5064)" class="st2" width="0.8" height="8.7"/>
	
		<rect x="161.6" y="675.7" transform="matrix(0.9429 -0.3329 0.3329 0.9429 -216.5716 92.6262)" class="st2" width="0.8" height="5.1"/>
	
		<rect x="159.5" y="676.4" transform="matrix(0.9433 -0.3319 0.3319 0.9433 -216.2592 91.5472)" class="st2" width="0.8" height="5.1"/>
	
		<rect x="157.4" y="677.1" transform="matrix(0.9433 -0.3319 0.3319 0.9433 -216.6177 90.9037)" class="st2" width="0.8" height="5.1"/>
	
		<rect x="154.8" y="674.4" transform="matrix(0.9433 -0.3319 0.3319 0.9433 -216.445 89.9639)" class="st2" width="0.8" height="8.7"/>
	
		<rect x="153.3" y="678.6" transform="matrix(0.9429 -0.3329 0.3329 0.9429 -218.0124 90.0406)" class="st2" width="0.8" height="5.1"/>
	
		<rect x="151.2" y="679.3" transform="matrix(0.9429 -0.3329 0.3329 0.9429 -218.3723 89.3954)" class="st2" width="0.8" height="5.1"/>
	
		<rect x="149.2" y="680.1" transform="matrix(0.9433 -0.3319 0.3319 0.9433 -218.0527 88.3275)" class="st2" width="0.8" height="5.1"/>
	
		<rect x="146.5" y="677.3" transform="matrix(0.9433 -0.3319 0.3319 0.9433 -217.8789 87.3872)" class="st2" width="0.8" height="8.7"/>
	
		<rect x="145.2" y="681.5" transform="matrix(0.9433 -0.3319 0.3319 0.9433 -218.7497 87.0733)" class="st2" width="0.8" height="5.1"/>
	
		<rect x="143.1" y="682.2" transform="matrix(0.9433 -0.3319 0.3319 0.9433 -219.1088 86.4279)" class="st2" width="0.8" height="5.1"/>
	
		<rect x="141" y="682.9" transform="matrix(0.9433 -0.3319 0.3319 0.9433 -219.4672 85.7835)" class="st2" width="0.8" height="5.1"/>
	
		<rect x="138.4" y="680.1" transform="matrix(0.9433 -0.3321 0.3321 0.9433 -219.4155 84.9168)" class="st2" width="0.8" height="8.7"/>
	
		<rect x="136.9" y="684.4" transform="matrix(0.9433 -0.3319 0.3319 0.9433 -220.1842 84.4956)" class="st2" width="0.8" height="5.1"/>
	
		<rect x="134.8" y="685.1" transform="matrix(0.9429 -0.3329 0.3329 0.9429 -221.2343 84.2607)" class="st2" width="0.8" height="5.1"/>
	
		<rect x="132.8" y="685.8" transform="matrix(0.9429 -0.3329 0.3329 0.9429 -221.5944 83.6144)" class="st2" width="0.8" height="5.1"/>
	
		<rect x="130.1" y="683.1" transform="matrix(0.9429 -0.3329 0.3329 0.9429 -221.4225 82.6698)" class="st2" width="0.8" height="8.7"/>
	
		<rect x="128.7" y="687.3" transform="matrix(0.9433 -0.3319 0.3319 0.9433 -221.5997 81.9531)" class="st2" width="0.8" height="5.1"/>
	
		<rect x="126.7" y="688" transform="matrix(0.9433 -0.3319 0.3319 0.9433 -221.9582 81.3087)" class="st2" width="0.8" height="5.1"/>
	
		<rect x="124.6" y="688.7" transform="matrix(0.9433 -0.3319 0.3319 0.9433 -222.3168 80.6643)" class="st2" width="0.8" height="5.1"/>
	
		<rect x="122" y="685.9" transform="matrix(0.9429 -0.3329 0.3329 0.9429 -222.8436 80.1206)" class="st2" width="0.8" height="8.7"/>
	
		<rect x="120.5" y="690.2" transform="matrix(0.9433 -0.3319 0.3319 0.9433 -223.0337 79.3764)" class="st2" width="0.8" height="5.1"/>
	
		<rect x="118.4" y="690.9" transform="matrix(0.9433 -0.3319 0.3319 0.9433 -223.3928 78.7308)" class="st2" width="0.8" height="5.1"/>
	
		<rect x="116.4" y="691.6" transform="matrix(0.9433 -0.3319 0.3319 0.9433 -223.7511 78.0877)" class="st2" width="0.8" height="5.1"/>
	
		<rect x="113.7" y="688.8" transform="matrix(0.9429 -0.3329 0.3329 0.9429 -224.2845 77.535)" class="st2" width="0.8" height="8.7"/>
	
		<rect x="112.3" y="693" transform="matrix(0.9433 -0.3319 0.3319 0.9433 -224.4492 76.8337)" class="st2" width="0.8" height="5.1"/>
	
		<rect x="110.3" y="693.8" transform="matrix(0.9433 -0.3319 0.3319 0.9433 -224.8077 76.1893)" class="st2" width="0.8" height="5.1"/>
	
		<rect x="108.2" y="694.5" transform="matrix(0.9433 -0.3319 0.3319 0.9433 -225.1662 75.545)" class="st2" width="0.8" height="5.1"/>
	
		<rect x="105.5" y="691.7" transform="matrix(0.9429 -0.3329 0.3329 0.9429 -225.7046 74.9844)" class="st2" width="0.8" height="8.7"/>
	
		<rect x="104.1" y="696" transform="matrix(0.9433 -0.3319 0.3319 0.9433 -225.8837 74.256)" class="st2" width="0.8" height="5.1"/>
	
		<rect x="102" y="696.7" transform="matrix(0.9433 -0.3319 0.3319 0.9433 -226.2422 73.6116)" class="st2" width="0.8" height="5.1"/>
	
		<rect x="99.9" y="697.4" transform="matrix(0.9433 -0.3319 0.3319 0.9433 -226.6005 72.9685)" class="st2" width="0.8" height="5.1"/>
	
		<rect x="97.3" y="694.6" transform="matrix(0.9429 -0.3329 0.3329 0.9429 -227.1452 72.3999)" class="st2" width="0.8" height="8.7"/>
	
		<rect x="95.9" y="698.8" transform="matrix(0.9429 -0.3329 0.3329 0.9429 -228.0203 72.0859)" class="st2" width="0.8" height="5.1"/>
	
		<rect x="93.9" y="699.6" transform="matrix(0.9433 -0.3319 0.3319 0.9433 -227.6571 71.0702)" class="st2" width="0.8" height="5.1"/>
	
		<rect x="91.8" y="700.3" transform="matrix(0.9433 -0.3319 0.3319 0.9433 -228.0157 70.4258)" class="st2" width="0.8" height="5.1"/>
	
		<rect x="89.1" y="697.5" transform="matrix(0.9433 -0.3319 0.3319 0.9433 -227.8426 69.4842)" class="st2" width="0.8" height="8.7"/>
	
		<rect x="87.7" y="701.7" transform="matrix(0.9433 -0.3319 0.3319 0.9433 -228.733 69.1371)" class="st2" width="0.8" height="5.1"/>
	
		<rect x="85.6" y="702.5" transform="matrix(0.9433 -0.3319 0.3319 0.9433 -229.0917 68.4924)" class="st2" width="0.8" height="5.1"/>
	
		<rect x="83.5" y="703.2" transform="matrix(0.9433 -0.3319 0.3319 0.9433 -229.45 67.8491)" class="st2" width="0.8" height="5.1"/>
	
		<rect x="80.9" y="700.4" transform="matrix(0.9433 -0.3319 0.3319 0.9433 -229.2763 66.9088)" class="st2" width="0.8" height="8.7"/>
	
		<rect x="79.5" y="704.6" transform="matrix(0.9429 -0.3329 0.3329 0.9429 -230.8812 66.9497)" class="st2" width="0.8" height="5.1"/>
	
		<rect x="77.4" y="705.3" transform="matrix(0.9429 -0.3329 0.3329 0.9429 -231.2429 66.3036)" class="st2" width="0.8" height="5.1"/>
	
		<rect x="75.4" y="706.1" transform="matrix(0.9429 -0.3329 0.3329 0.9429 -231.603 65.6573)" class="st2" width="0.8" height="5.1"/>
	
		<rect x="72.7" y="703.3" transform="matrix(0.9433 -0.3319 0.3319 0.9433 -230.692 64.3651)" class="st2" width="0.8" height="8.7"/>
	
		<rect x="71.2" y="707.5" transform="matrix(0.9433 -0.3319 0.3319 0.9433 -231.5826 64.0179)" class="st2" width="0.8" height="5.1"/>
	
		<rect x="69.2" y="708.3" transform="matrix(0.9433 -0.3319 0.3319 0.9433 -231.9423 63.3737)" class="st2" width="0.8" height="5.1"/>
	
		<rect x="67.1" y="709" transform="matrix(0.9433 -0.3319 0.3319 0.9433 -232.2994 62.7299)" class="st2" width="0.8" height="5.1"/>
	
		<rect x="64.4" y="706.2" transform="matrix(0.9429 -0.3329 0.3329 0.9429 -232.8703 62.131)" class="st2" width="0.8" height="8.7"/>
	
		<rect x="63.1" y="710.4" transform="matrix(0.9429 -0.3329 0.3329 0.9429 -233.7449 61.8144)" class="st2" width="0.8" height="5.1"/>
	
		<rect x="61" y="711.1" transform="matrix(0.9429 -0.3329 0.3329 0.9429 -234.1048 61.1689)" class="st2" width="0.8" height="5.1"/>
	
		<rect x="59" y="711.9" transform="matrix(0.9429 -0.3329 0.3329 0.9429 -234.4649 60.5226)" class="st2" width="0.8" height="5.1"/>
	
		<rect x="56.3" y="709.1" transform="matrix(0.9433 -0.3319 0.3319 0.9433 -233.5426 59.2464)" class="st2" width="0.8" height="8.7"/>
	
		<rect x="54.8" y="713.3" transform="matrix(0.9429 -0.3329 0.3329 0.9429 -235.185 59.231)" class="st2" width="0.8" height="5.1"/>
	
		<rect x="52.8" y="714" transform="matrix(0.9433 -0.3319 0.3319 0.9433 -234.7906 58.2542)" class="st2" width="0.8" height="5.1"/>
	
		<rect x="50.7" y="714.8" transform="matrix(0.9429 -0.3329 0.3329 0.9429 -235.9057 57.9368)" class="st2" width="0.8" height="5.1"/>
	<rect x="48" y="712" transform="matrix(0.9433 -0.3319 0.3319 0.9433 -234.9769 56.6698)" class="st2" width="0.8" height="8.7"/>
	
		<rect x="46.7" y="716.2" transform="matrix(0.9429 -0.3329 0.3329 0.9429 -236.6068 56.6795)" class="st2" width="0.8" height="5.1"/>
	
		<rect x="44.6" y="716.9" transform="matrix(0.9429 -0.3329 0.3329 0.9429 -236.9667 56.0345)" class="st2" width="0.8" height="5.1"/>
	
		<rect x="42.5" y="717.6" transform="matrix(0.9429 -0.3329 0.3329 0.9429 -237.3269 55.3877)" class="st2" width="0.8" height="5.1"/>
	
		<rect x="39.9" y="714.9" transform="matrix(0.9433 -0.3319 0.3319 0.9433 -236.3921 54.1271)" class="st2" width="0.8" height="8.7"/>
	
		<rect x="31.6" y="717.8" transform="matrix(0.9433 -0.3319 0.3319 0.9433 -237.8264 51.5506)" class="st2" width="0.8" height="8.7"/>
	<polygon class="st3" points="756.8,497.2 755.4,496.8 755.8,500.9 758.1,497.5 	"/>
	<polygon class="st2" points="758.1,497.5 758.1,497.5 762.9,490.3 758.8,489.2 756.8,497.2 	"/>
	<polygon class="st1" points="755.4,496.8 756.8,497.2 758.8,489.2 754.6,488.2 	"/>
	
		<rect x="707.2" y="423" transform="matrix(0.245 -0.9695 0.9695 0.245 171.2179 1070.141)" class="st7" width="131.1" height="4.3"/>
	
		<rect x="711.4" y="424.1" transform="matrix(0.245 -0.9695 0.9695 0.245 173.3008 1075.0148)" class="st3" width="131.1" height="4.3"/>
	<path class="st7" d="M526.4,634.8l0.9-0.4l-55.9-129l-3.1,1.3c-1,0.4-1.4,1.6-1,2.5l41.9,96.7c2,4.7,4.4,9.1,7.1,13.4l9.7,15.3
		C526.2,634.7,526.3,634.8,526.4,634.8z"/>
	<path class="st3" d="M528.3,633.7l-4.5-17.5c-1.3-4.9-2.9-9.7-4.9-14.4L477,505.1c-0.4-1-1.6-1.4-2.5-1l-3.1,1.3l55.9,129l0.9-0.4
		C528.3,634,528.3,633.8,528.3,633.7z"/>
	
		<rect x="502.3" y="588.4" transform="matrix(0.9176 -0.3974 0.3974 0.9176 -192.6515 249.2011)" class="st1" width="5.3" height="2"/>
	
		<rect x="507.1" y="586.3" transform="matrix(0.9176 -0.3976 0.3976 0.9176 -191.4815 251.0642)" class="st2" width="5.3" height="2"/>
	<path class="st1" d="M468.3,511.5l0.8,1.8l2.4-1l14.5,33.6c0.5,1.1,1.7,1.6,2.8,1.1l0,0l0.4-0.2l-15.4-35.5l-0.6-1.3l-0.2-0.5
		L468.3,511.5z"/>
	<path class="st2" d="M478,507.3l-4.8,2.1l0.2,0.5l0.6,1.3l15.4,35.5l0.4-0.2c1.1-0.5,1.6-1.7,1.1-2.8l0,0l-14.5-33.6l2.4-1
		L478,507.3z"/>
	<path class="st1" d="M467.2,498.8l1.2-0.5l3.1,7.1l-3.1,1.3l-2.2-5.2C465.6,500.5,466.1,499.3,467.2,498.8z"/>
	<path class="st2" d="M468.3,498.3l1.2-0.5c1.1-0.5,2.3,0,2.7,1.1l2.2,5.2l-3.1,1.3L468.3,498.3L468.3,498.3z"/>
	<polygon class="st1" points="526.5,634.7 528,636.4 528.2,636.4 527.3,634.4 	"/>
	<polygon class="st2" points="528.2,636.3 528,634 527.3,634.4 528.1,636.4 	"/>
	<path class="st4" d="M540.1,542.8h1V402.2h-3.3c-1.1,0-1.9,0.9-1.9,1.9v105.4c0,5.1,0.4,10.1,1.2,15.1l2.8,17.9
		C539.8,542.7,540,542.8,540.1,542.8z"/>
	<path class="st5" d="M542.2,542.5l2.8-17.9c0.8-5,1.2-10.1,1.2-15.1V404.1c0-1.1-0.9-1.9-1.9-1.9H541v140.6h1
		C542.1,542.8,542.2,542.7,542.2,542.5z"/>
	<rect x="535.8" y="491.6" class="st1" width="5.3" height="2"/>
	<rect x="541" y="491.6" class="st2" width="5.3" height="2"/>
	<path class="st1" d="M535.8,406.6v2h2.6v36.6c0,1.2,1,2.1,2.1,2.1h0.5v-40.7H535.8z"/>
	<path class="st2" d="M546.3,406.6H541v40.7h0.5c1.2,0,2.1-1,2.1-2.1v-36.6h2.6V406.6z"/>
	<path class="st7" d="M539.8,394.5h1.3v7.7h-3.3v-5.6C537.7,395.4,538.6,394.5,539.8,394.5z"/>
	<path class="st3" d="M541,394.5h1.3c1.1,0,2.1,0.9,2.1,2.1v5.6H541V394.5L541,394.5z"/>
	<polygon class="st7" points="540.2,542.8 540.9,544.9 541,545 541,542.8 	"/>
	<polygon class="st3" points="541.1,544.9 541.8,542.8 541,542.8 541,545 	"/>
	<path class="st2" d="M611.4,162.3l79.6-71.9c2.2-2,2.4-5.5,0.4-7.7l0,0l-25-27.7l-87.7,79.2l25,27.7
		C605.7,164.2,609.2,164.3,611.4,162.3L611.4,162.3z"/>
	<path class="st7" d="M597.5,18.4c1.5-1.4,3.8-1.2,5.2,0.3l0.4,0.4c1.4,1.5,1.2,3.8-0.3,5.2L578.7,46l2.4,2.7l24.1-21.8
		c3-2.7,3.2-7.3,0.5-10.3l-0.4-0.4c-2.7-3-7.3-3.2-10.3-0.5L571,37.5l2.4,2.7L597.5,18.4z"/>
	<path class="st3" d="M543,78.2c-2.9,2.8-2.9,7.5-0.1,10.3c2.6,2.7,6.9,2.9,9.8,0.5l35.7-32.2l-2.4-2.7l-35.7,32.2
		c-1.5,1.4-3.8,1.2-5.2-0.3c-1.4-1.5-1.2-3.8,0.3-5.2l35.7-32.2l-2.4-2.7L543,78.2z"/>
	<path class="st3" d="M530.1,69.4l-4.7-5.2c-1.4-1.5-1.2-3.8,0.3-5.2l35.1-31.7l-2.4-2.7l-35.1,31.7c-3,2.7-3.2,7.3-0.5,10.3
		l4.7,5.2c2.7,3,7.3,3.2,10.3,0.5l35.7-32.2l-2.4-2.7l-35.7,32.2C533.8,71,531.5,70.9,530.1,69.4L530.1,69.4z"/>
	
		<rect x="566.6" y="8.3" transform="matrix(0.7421 -0.6703 0.6703 0.7421 139.8965 385.9621)" class="st1" width="9.7" height="5.8"/>
	
		<rect x="568.3" y="11.8" transform="matrix(0.7422 -0.6702 0.6702 0.7422 138.0906 385.014)" class="st7" width="2.4" height="2.4"/>
	<polygon class="st3" points="570.7,12.7 569.4,13.9 568.2,12.6 567.7,13 569.3,14.7 571.1,13.1 	"/>
	
		<rect x="570.5" y="12.6" transform="matrix(0.7421 -0.6703 0.6703 0.7421 137.9813 389.6694)" class="st2" width="9.7" height="5.8"/>
	
		<rect x="572.2" y="16.2" transform="matrix(0.7421 -0.6703 0.6703 0.7421 136.251 388.8076)" class="st7" width="2.4" height="2.4"/>
	<polygon class="st3" points="574.6,17 573.3,18.3 572.1,16.9 571.6,17.3 573.2,19.1 575,17.5 	"/>
	<path class="st7" d="M565.8,11.4c-0.4-0.5-1.1-0.5-1.6-0.1l-9.2,8.3c-2.6,2.3-2.8,6.3-0.5,8.9l0.9,1l14.7-13.3L565.8,11.4z"/>
	<path class="st3" d="M565.3,31.1l9.2-8.3c0.5-0.4,0.5-1.1,0.1-1.6l-4.4-4.9l-14.7,13.3l0.9,1C558.7,33.2,562.7,33.4,565.3,31.1z"/>
	<path class="st1" d="M641.5,27.4c-2-2.2-5.5-2.4-7.7-0.4l0,0l-79.6,71.9c-2.2,2-2.4,5.5-0.4,7.7l25,27.7L666.5,55L641.5,27.4z"/>
	<path class="st7" d="M651.5,29.5l-0.9,0.8c1.1,0.6,2,1.5,2.4,2.7l0.9-0.8c3-2.7,3.2-7.3,0.5-10.3l-9.8-10.8
		c-2.7-3-7.3-3.2-10.3-0.5l-48.3,43.6l2.4,2.7l48.3-43.6c1.5-1.4,3.9-1.2,5.2,0.3l0,0l9.8,10.8C653.1,25.9,653,28.2,651.5,29.5z"/>
	<path class="st3" d="M651.5,38.5l0.2-0.2c2-1.8,2.2-4.9,0.4-6.9c-1.8-2-4.9-2.2-6.9-0.4l-0.2,0.2L651.5,38.5z"/>
	
		<rect x="937.5" y="385.3" transform="matrix(0.8071 -0.5904 0.5904 0.8071 -51.2181 633.096)" class="st1" width="11.6" height="19.3"/>
	<path class="st7" d="M943.2,406.9c-1,0.7-1.2,2.2-0.5,3.2l0,0l35.6,48.6c0.7,1,2.2,1.2,3.2,0.5l0,0l10.5-7.7l-38.3-52.3
		L943.2,406.9z"/>
	
		<rect x="944.2" y="397" transform="matrix(0.8072 -0.5903 0.5903 0.8072 -53.207 635.8181)" class="st7" width="4.8" height="4.8"/>
	<polygon class="st3" points="946.1,396.6 948.3,399.5 945.4,401.7 946,402.6 949.9,399.8 947.1,395.9 	"/>
	
		<rect x="946.9" y="378.4" transform="matrix(0.8071 -0.5904 0.5904 0.8071 -45.3553 637.3119)" class="st2" width="11.6" height="19.3"/>
	
		<rect x="953.6" y="390.1" transform="matrix(0.8072 -0.5903 0.5903 0.8072 -47.3447 640.0351)" class="st7" width="4.8" height="4.8"/>
	<polygon class="st3" points="955.5,389.7 957.7,392.7 954.7,394.8 955.4,395.7 959.3,392.9 956.5,389.1 	"/>
	<path class="st3" d="M964.2,391.5l-10.5,7.7l38.3,52.3l10.5-7.7c1-0.7,1.2-2.2,0.5-3.2l0,0L967.5,392
		C966.7,391,965.3,390.8,964.2,391.5L964.2,391.5z M1000.1,443c-0.9,0.7-2.2,0.5-2.8-0.4s-0.5-2.2,0.4-2.8c0.9-0.7,2.2-0.5,2.8,0.4
		l0,0C1001.2,441,1001,442.3,1000.1,443L1000.1,443L1000.1,443z"/>
	<path class="st1" d="M830.8,357.9c-2-0.3-3.7-1.7-5-4.2L803.1,312c-1.5-2.8-2-5-1.4-6.6c0.5-1.3,1.5-2,2.5-2.6l-1-1.8
		c-1.2,0.7-2.7,1.7-3.4,3.6c-0.4,1.1-0.5,2.4-0.2,3.5c0.3,1.6,0.9,3.2,1.8,4.7l22.7,41.8c0.7,1.4,1.8,2.7,3,3.7
		c1,0.8,2.2,1.3,3.4,1.5c1.5,0.2,3,0.1,4.5-0.5l-1-1.8C832.9,358,831.9,358.1,830.8,357.9z"/>
	<path class="st1" d="M827.7,347c-1.2-0.2-2.3-1.2-3.2-2.9l-13-23.8l-1.8,1l13,23.8c1.3,2.3,2.8,3.6,4.6,3.9c0.6,0.1,1.2,0.1,1.8,0
		l-1-1.8C828.1,347,827.9,347,827.7,347z"/>
	<path class="st2" d="M804.3,302.7c1-0.5,2.3-1.1,3.7-0.8c1.6,0.3,3.1,1.8,4.5,4.4l18.6,34.2c0.9,1.6,1.1,2.9,0.7,4.1
		c-0.4,0.9-1.1,1.7-1.9,2.1c-0.9,0.5-1.2,0.5-1.7,0.4l1,1.8c0.2,0,0.4-0.1,0.5-0.1c0.6-0.2,0.4,0,1.1-0.3c1.3-0.7,2.4-1.8,2.9-3.2
		c0.6-1.7,0.3-3.6-0.9-5.7l-18.6-34.2c-0.7-1.4-1.7-2.7-2.9-3.8c-0.8-0.8-1.9-1.4-3-1.6c-2-0.4-3.8,0.3-5.1,1l-0.2,0.1l1,1.8
		L804.3,302.7z"/>
	<path class="st2" d="M840.9,354c0.9-2.4,0.5-5.1-1.2-8.2l-17.2-31.7l-1.8,1l17.2,31.7c1.4,2.5,1.7,4.7,1.1,6.5
		c-0.5,1.5-1.7,2.7-3.5,3.7c-0.5,0.3-1,0.5-1.5,0.6l1,1.8c0.5-0.2,1-0.4,1.5-0.7C838.6,357.5,840.2,355.9,840.9,354z"/>
	<path class="st1" d="M115.5,532.8c-1.7-1.1-2.6-3.1-2.8-5.8l-3.4-47.5c-0.2-3.1,0.3-5.3,1.5-6.6c0.9-1,2.2-1.2,3.3-1.3l-0.1-2
		c-1.3,0.1-3.2,0.5-4.6,1.9c-0.8,0.9-1.4,2-1.7,3.1c-0.4,1.6-0.5,3.3-0.3,5l3.4,47.5c0.1,1.6,0.5,3.1,1.2,4.6
		c0.6,1.1,1.4,2.1,2.5,2.8c1.3,0.8,2.7,1.3,4.3,1.4l-0.1-2C117.5,533.7,116.4,533.4,115.5,532.8z"/>
	<path class="st1" d="M117.3,521.5c-1-0.7-1.6-2-1.7-4l-1.9-27.1l-2,0.1l1.9,27.1c0.2,2.6,1.1,4.5,2.6,5.5c0.5,0.3,1.1,0.6,1.7,0.7
		l-0.1-2.1C117.6,521.8,117.4,521.7,117.3,521.5z"/>
	<path class="st2" d="M114.3,471.6c1.1-0.1,2.6-0.1,3.7,0.8c1.3,1,2.1,3,2.3,5.9L123,517c0.1,1.8-0.2,3.1-1,4
		c-0.7,0.7-1.7,1.1-2.7,1.1c-1,0.1-1.3-0.1-1.7-0.3l0.1,2.1c0.2,0,0.4,0.1,0.5,0.1c0.6,0.1,0.3,0.2,1.1,0.1c1.5-0.1,2.9-0.7,4-1.8
		c1.2-1.3,1.7-3.1,1.6-5.5l-2.8-38.8c-0.1-1.6-0.4-3.2-1-4.7c-0.4-1.1-1.1-2-2.1-2.7c-1.6-1.2-3.6-1.3-5-1.2H114l0.1,2L114.3,471.6z
		"/>
	<path class="st2" d="M126.3,533.4c1.8-1.8,2.5-4.5,2.3-7.9l-2.6-36l-2,0.1l2.6,36c0.2,2.9-0.4,5-1.7,6.4c-1.1,1.1-2.7,1.8-4.7,1.9
		c-0.6,0-1.1,0-1.7,0l0.1,2c0.5,0,1.1,0,1.6,0C122.8,535.7,124.9,534.8,126.3,533.4z"/>
	<path class="st1" d="M1033.9,49.2c-1.2-1.6-1.5-3.8-0.8-6.4l12.3-46c0.8-3,2-5,3.5-5.7c1.2-0.6,2.5-0.4,3.5-0.2l0.5-1.9
		c-1.3-0.3-3.1-0.6-5,0.3c-1.1,0.6-2,1.4-2.6,2.4c-0.9,1.4-1.6,3-2,4.6l-12.3,46c-0.4,1.5-0.6,3.1-0.3,4.7c0.2,1.3,0.7,2.4,1.4,3.5
		c0.9,1.2,2.2,2.1,3.6,2.7l0.5-2C1035.4,50.7,1034.5,50.1,1033.9,49.2z"/>
	<path class="st1" d="M1039.1,39.2c-0.7-0.9-0.8-2.4-0.3-4.3l7-26.2l-1.9-0.5l-7,26.2c-0.7,2.5-0.5,4.6,0.7,6
		c0.4,0.5,0.8,0.9,1.3,1.2l0.5-2C1039.4,39.5,1039.3,39.3,1039.1,39.2z"/>
	<path class="st2" d="M1052.6-9c1.1,0.3,2.4,0.8,3.2,1.9c0.9,1.3,1,3.5,0.2,6.3l-10,37.6c-0.5,1.7-1.2,2.9-2.3,3.4
		c-0.9,0.4-1.9,0.5-2.9,0.2c-1-0.3-1.2-0.5-1.5-0.9l-0.5,2c0.2,0.1,0.3,0.2,0.5,0.3c0.6,0.3,0.3,0.3,1,0.5c1.4,0.4,3,0.3,4.3-0.4
		c1.6-0.8,2.6-2.4,3.3-4.7l10-37.6c0.5-1.5,0.6-3.1,0.6-4.7c-0.1-1.2-0.4-2.3-1.1-3.2c-1.2-1.7-2.9-2.4-4.4-2.7l-0.2,0l-0.5,1.9
		L1052.6-9z"/>
	<path class="st2" d="M1043.9,53.3c2.3-1.1,3.9-3.4,4.8-6.8l9.3-34.8l-1.9-0.5l-9.3,34.8c-0.8,2.8-2,4.6-3.7,5.5
		c-1.4,0.7-3.1,0.8-5.1,0.3c-0.5-0.1-1.1-0.3-1.6-0.6l-0.5,2c0.5,0.2,1,0.4,1.6,0.5C1039.8,54.4,1042,54.2,1043.9,53.3z"/>
	<path class="st3" d="M866,705.9l-165.5-149c-3.1-2.8-8-2.6-10.8,0.6l0,0l-68.3,75.9c-2.8,3.1-2.6,8,0.6,10.8l0,0l165.5,149
		c3.1,2.8,8,2.6,10.8-0.6l0,0l68.3-75.9C869.4,713.6,869.2,708.7,866,705.9z M660.6,600c1.4-1.5,3.8-1.7,5.3-0.3
		c1.5,1.4,1.7,3.8,0.3,5.3c-1.4,1.5-3.8,1.7-5.3,0.3l0,0C659.4,603.8,659.3,601.5,660.6,600z M831.7,744.1l-9.8,10.9
		c-1.3,1.3-3.4,1.4-4.7,0.1c-1.3-1.2-1.4-3.2-0.2-4.6l9.8-10.9c1.2-1.4,3.3-1.5,4.7-0.2S832.9,742.8,831.7,744.1z M849.1,700.8
		l-68.6,76.1c-0.4,0.5-1.2,0.5-1.6,0.1l0,0L637.3,649.4c-0.5-0.4-0.5-1.2-0.1-1.6l0,0l68.6-76.1c0.4-0.5,1.2-0.5,1.6-0.1l0,0
		l141.7,127.6C849.5,699.5,849.6,700.3,849.1,700.8L849.1,700.8L849.1,700.8z"/>
	<path class="st7" d="M849.1,699.1L707.4,571.5c-0.5-0.4-1.2-0.4-1.6,0.1l0,0l-68.6,76.1c-0.4,0.5-0.4,1.2,0.1,1.6l0,0L778.9,777
		c0.5,0.4,1.2,0.4,1.6-0.1l0,0l68.6-76.1C849.6,700.3,849.5,699.6,849.1,699.1L849.1,699.1z"/>
	<path class="st7" d="M666.2,604.9c1.4-1.5,1.3-3.9-0.3-5.3c-1.5-1.4-3.9-1.3-5.3,0.3c-1.4,1.5-1.3,3.9,0.3,5.3l0,0
		C662.4,606.6,664.8,606.5,666.2,604.9z M662,601.2c0.7-0.8,1.9-0.8,2.7-0.1s0.8,1.9,0.1,2.7c-0.7,0.8-1.9,0.8-2.7,0.1l0,0
		C661.4,603.2,661.3,602,662,601.2z"/>
	<path class="st3" d="M664.8,603.7c0.7-0.8,0.6-2-0.1-2.7s-2-0.6-2.7,0.1c-0.7,0.8-0.6,2,0.1,2.7l0,0
		C662.9,604.6,664.1,604.5,664.8,603.7z"/>
	<path class="st3" d="M388.7,692.5c0-0.2,0.1-0.3,0.2-0.4l-7.4-1.9c0.2,0.9,0.1,1.9-0.1,2.8c0,0.1,0,0.2-0.1,0.3
		c-0.2,0.8-0.6,1.6-1,2.2l7.1,1.8L388.7,692.5z"/>
	<path class="st4" d="M381.4,692.9c0.9-3.8-1.4-7.6-5.2-8.6l-67.8-18c-3.9-1-7.8,1.3-8.8,5.1l0,0c0,0.1,0,0.2-0.1,0.3L381.4,692.9z"
		/>
	<path class="st5" d="M381.4,692.9l-81.9-21.1c-0.8,3.8,1.4,7.6,5.2,8.6l67.8,18c3.9,1,7.8-1.3,8.8-5.1
		C381.3,693.1,381.3,693,381.4,692.9z"/>
	<path class="st1" d="M462.1,711.5c2.9-17.3-8.8-33.6-26-36.5c-11.5-1.9-23.1,2.6-30.2,11.7c13.3-12.7,34.3-12.2,47,1
		C459,694.1,462.3,702.7,462.1,711.5z"/>
	<path class="st7" d="M387.4,697.3l-0.2,0.6c-4.7,24.1,11.1,47.3,35.1,52c24.1,4.7,47.3-11.1,52-35.1s-11.1-47.3-35.1-52
		c-21.8-4.2-43.3,8.3-50.5,29.3c0,0.2-0.1,0.3-0.2,0.4L387.4,697.3z M440.2,670.8c19.6,5.2,31.3,25.3,26.1,45
		c-5.2,19.6-25.3,31.3-45,26.1c-19.6-5.2-31.3-25.3-26.1-45l0,0C400.5,677.3,420.6,665.6,440.2,670.8z"/>
	<path class="st1" d="M899.6,573.2l8.3,24.9l254-84.2l-8.3-24.9L899.6,573.2z M1151.1,506.9c-1.6,0.5-3.4-0.3-3.9-2
		c-0.5-1.6,0.3-3.4,2-3.9c1.6-0.5,3.4,0.3,3.9,2C1153.7,504.6,1152.8,506.4,1151.1,506.9L1151.1,506.9z"/>
	
		<rect x="903.8" y="574" transform="matrix(0.949 -0.3154 0.3154 0.949 -136.5008 314.7306)" class="st2" width="0.7" height="10.2"/>
	
		<rect x="904.7" y="573.5" transform="matrix(0.9491 -0.315 0.315 0.9491 -135.2879 314.3994)" class="st2" width="0.7" height="4.5"/>
	
		<rect x="906.6" y="572.9" transform="matrix(0.9491 -0.315 0.315 0.9491 -135.0026 314.9457)" class="st2" width="0.7" height="4.5"/>
	
		<rect x="908.4" y="572.3" transform="matrix(0.9491 -0.315 0.315 0.9491 -134.7171 315.492)" class="st2" width="0.7" height="4.5"/>
	
		<rect x="910.7" y="571.6" transform="matrix(0.9494 -0.3142 0.3142 0.9494 -134.6571 315.3579)" class="st2" width="0.7" height="7.6"/>
	
		<rect x="912" y="571.1" transform="matrix(0.949 -0.3154 0.3154 0.949 -134.2607 317.0372)" class="st2" width="0.7" height="4.5"/>
	
		<rect x="913.9" y="570.5" transform="matrix(0.9491 -0.315 0.315 0.9491 -133.8641 317.1293)" class="st2" width="0.7" height="4.5"/>
	
		<rect x="915.7" y="569.9" transform="matrix(0.9491 -0.315 0.315 0.9491 -133.579 317.6745)" class="st2" width="0.7" height="4.5"/>
	
		<rect x="918.4" y="569.1" transform="matrix(0.9491 -0.315 0.315 0.9491 -134.1109 318.6456)" class="st2" width="0.7" height="10.2"/>
	
		<rect x="919.3" y="568.7" transform="matrix(0.9491 -0.315 0.315 0.9491 -133.0253 318.7374)" class="st2" width="0.7" height="4.5"/>
	
		<rect x="921.1" y="568.1" transform="matrix(0.949 -0.3154 0.3154 0.949 -132.8499 319.7412)" class="st2" width="0.7" height="4.5"/>
	
		<rect x="922.9" y="567.5" transform="matrix(0.9495 -0.3137 0.3137 0.9495 -132.1297 318.4509)" class="st2" width="0.7" height="4.5"/>
	
		<rect x="925.3" y="566.8" transform="matrix(0.9491 -0.315 0.315 0.9491 -132.6224 320.6098)" class="st2" width="0.7" height="7.6"/>
	
		<rect x="926.6" y="566.3" transform="matrix(0.9491 -0.315 0.315 0.9491 -131.888 320.9212)" class="st2" width="0.7" height="4.5"/>
	
		<rect x="928.4" y="565.7" transform="matrix(0.9495 -0.3137 0.3137 0.9495 -131.28 320.0816)" class="st2" width="0.7" height="4.5"/>
	
		<rect x="930.3" y="565.1" transform="matrix(0.9491 -0.315 0.315 0.9491 -131.3186 322.0132)" class="st2" width="0.7" height="4.5"/>
	
		<rect x="933" y="564.3" transform="matrix(0.9491 -0.315 0.315 0.9491 -131.8505 322.9843)" class="st2" width="0.7" height="10.2"/>
	
		<rect x="933.8" y="563.9" transform="matrix(0.949 -0.3154 0.3154 0.949 -130.8702 323.538)" class="st2" width="0.7" height="4.5"/>
	
		<rect x="935.7" y="563.3" transform="matrix(0.949 -0.3154 0.3154 0.949 -130.5857 324.0839)" class="st2" width="0.7" height="4.5"/>
	
		<rect x="937.5" y="562.7" transform="matrix(0.949 -0.3154 0.3154 0.949 -130.2999 324.631)" class="st2" width="0.7" height="4.5"/>
	<rect x="939.8" y="562" transform="matrix(0.9491 -0.315 0.315 0.9491 -130.362 324.9484)" class="st2" width="0.7" height="7.6"/>
	
		<rect x="941.2" y="561.4" transform="matrix(0.9494 -0.3142 0.3142 0.9494 -129.4166 324.3233)" class="st2" width="0.7" height="4.5"/>
	
		<rect x="943" y="560.8" transform="matrix(0.949 -0.3154 0.3154 0.949 -129.4454 326.2703)" class="st2" width="0.7" height="4.5"/>
	
		<rect x="944.8" y="560.2" transform="matrix(0.9494 -0.3142 0.3142 0.9494 -128.8504 325.4127)" class="st2" width="0.7" height="4.5"/>
	
		<rect x="947.6" y="559.5" transform="matrix(0.949 -0.3154 0.3154 0.949 -129.692 327.7886)" class="st2" width="0.7" height="10.2"/>
	
		<rect x="948.4" y="559.1" transform="matrix(0.9491 -0.315 0.315 0.9491 -128.5036 327.4128)" class="st2" width="0.7" height="4.5"/>
	
		<rect x="950.2" y="558.4" transform="matrix(0.9491 -0.315 0.315 0.9491 -128.2183 327.9591)" class="st2" width="0.7" height="4.5"/>
	
		<rect x="952" y="557.8" transform="matrix(0.9495 -0.3137 0.3137 0.9495 -127.6307 327.0948)" class="st2" width="0.7" height="4.5"/>
	
		<rect x="954.4" y="557.1" transform="matrix(0.949 -0.3154 0.3154 0.949 -128.1999 329.7561)" class="st2" width="0.7" height="7.6"/>
	
		<rect x="955.7" y="556.6" transform="matrix(0.949 -0.3154 0.3154 0.949 -127.4646 330.0666)" class="st2" width="0.7" height="4.5"/>
	<rect x="957.5" y="556" transform="matrix(0.9491 -0.315 0.315 0.9491 -127.081 330.1429)" class="st2" width="0.7" height="4.5"/>
	
		<rect x="959.4" y="555.4" transform="matrix(0.9491 -0.315 0.315 0.9491 -126.7957 330.6893)" class="st2" width="0.7" height="4.5"/>
	
		<rect x="962.1" y="554.7" transform="matrix(0.9491 -0.315 0.315 0.9491 -127.3277 331.6596)" class="st2" width="0.7" height="10.2"/>
	
		<rect x="962.9" y="554.2" transform="matrix(0.9491 -0.315 0.315 0.9491 -126.2422 331.7509)" class="st2" width="0.7" height="4.5"/>
	
		<rect x="964.8" y="553.6" transform="matrix(0.9491 -0.315 0.315 0.9491 -125.9579 332.2978)" class="st2" width="0.7" height="4.5"/>
	
		<rect x="966.6" y="553" transform="matrix(0.9491 -0.315 0.315 0.9491 -125.6738 332.8443)" class="st2" width="0.7" height="4.5"/>
	
		<rect x="968.9" y="552.3" transform="matrix(0.9491 -0.315 0.315 0.9491 -125.8393 333.6237)" class="st2" width="0.7" height="7.6"/>
	
		<rect x="970.3" y="551.8" transform="matrix(0.9491 -0.315 0.315 0.9491 -125.1038 333.9346)" class="st2" width="0.7" height="4.5"/>
	
		<rect x="972.1" y="551.2" transform="matrix(0.9495 -0.3137 0.3137 0.9495 -124.5326 333.0485)" class="st2" width="0.7" height="4.5"/>
	
		<rect x="973.9" y="550.6" transform="matrix(0.9491 -0.315 0.315 0.9491 -124.5353 335.028)" class="st2" width="0.7" height="4.5"/>
	
		<rect x="976.7" y="549.8" transform="matrix(0.9491 -0.315 0.315 0.9491 -125.0663 335.9977)" class="st2" width="0.7" height="10.2"/>
	
		<rect x="977.5" y="549.4" transform="matrix(0.949 -0.3154 0.3154 0.949 -124.0753 336.5675)" class="st2" width="0.7" height="4.5"/>
	
		<rect x="979.3" y="548.8" transform="matrix(0.949 -0.3154 0.3154 0.949 -123.7894 337.1146)" class="st2" width="0.7" height="4.5"/>
	
		<rect x="981.1" y="548.2" transform="matrix(0.949 -0.3154 0.3154 0.949 -123.5037 337.6603)" class="st2" width="0.7" height="4.5"/>
	
		<rect x="983.5" y="547.5" transform="matrix(0.9491 -0.315 0.315 0.9491 -123.578 337.9618)" class="st2" width="0.7" height="7.6"/>
	
		<rect x="984.8" y="547" transform="matrix(0.9494 -0.3142 0.3142 0.9494 -122.6587 337.3052)" class="st2" width="0.7" height="4.5"/>
	
		<rect x="986.6" y="546.4" transform="matrix(0.949 -0.3154 0.3154 0.949 -122.649 339.3009)" class="st2" width="0.7" height="4.5"/>
	
		<rect x="988.5" y="545.8" transform="matrix(0.9494 -0.3142 0.3142 0.9494 -122.0913 338.394)" class="st2" width="0.7" height="4.5"/>
	
		<rect x="991.2" y="545" transform="matrix(0.9491 -0.315 0.315 0.9491 -122.8048 340.3357)" class="st2" width="0.7" height="10.2"/>
	
		<rect x="992" y="544.6" transform="matrix(0.9495 -0.3137 0.3137 0.9495 -121.4499 338.9727)" class="st2" width="0.7" height="4.5"/>
	
		<rect x="993.9" y="544" transform="matrix(0.9491 -0.315 0.315 0.9491 -121.4361 340.9744)" class="st2" width="0.7" height="4.5"/>
	
		<rect x="995.7" y="543.4" transform="matrix(0.9495 -0.3137 0.3137 0.9495 -120.8834 340.0605)" class="st2" width="0.7" height="4.5"/>
	
		<rect x="998" y="542.7" transform="matrix(0.949 -0.3154 0.3154 0.949 -121.4048 342.7857)" class="st2" width="0.7" height="7.6"/>
	
		<rect x="999.4" y="542.1" transform="matrix(0.9491 -0.315 0.315 0.9491 -120.582 342.6112)" class="st2" width="0.7" height="4.5"/>
	
		<rect x="1001.2" y="541.5" transform="matrix(0.9495 -0.3137 0.3137 0.9495 -120.0338 341.6913)" class="st2" width="0.7" height="4.5"/>
	
		<rect x="1003" y="540.9" transform="matrix(0.9491 -0.315 0.315 0.9491 -120.0126 343.7032)" class="st2" width="0.7" height="4.5"/>
	
		<rect x="1005.8" y="540.2" transform="matrix(0.9491 -0.315 0.315 0.9491 -120.5445 344.6743)" class="st2" width="0.7" height="10.2"/>
	
		<rect x="1006.6" y="539.7" transform="matrix(0.9494 -0.3142 0.3142 0.9494 -119.2839 343.7718)" class="st2" width="0.7" height="4.5"/>
	
		<rect x="1008.4" y="539.1" transform="matrix(0.9495 -0.3137 0.3137 0.9495 -118.9178 343.8384)" class="st2" width="0.7" height="4.5"/>
	
		<rect x="1010.3" y="538.5" transform="matrix(0.9491 -0.315 0.315 0.9491 -118.8895 345.8577)" class="st2" width="0.7" height="4.5"/>
	
		<rect x="1012.6" y="537.8" transform="matrix(0.9491 -0.315 0.315 0.9491 -119.056 346.6384)" class="st2" width="0.7" height="7.6"/>
	
		<rect x="1013.9" y="537.3" transform="matrix(0.9491 -0.315 0.315 0.9491 -118.3218 346.9487)" class="st2" width="0.7" height="4.5"/>
	
		<rect x="1015.7" y="536.7" transform="matrix(0.9491 -0.315 0.315 0.9491 -118.0365 347.495)" class="st2" width="0.7" height="4.5"/>
	
		<rect x="1017.6" y="536.1" transform="matrix(0.9495 -0.3137 0.3137 0.9495 -117.5016 346.5583)" class="st2" width="0.7" height="4.5"/>
	
		<rect x="1020.3" y="535.3" transform="matrix(0.949 -0.3154 0.3154 0.949 -118.3661 349.5053)" class="st2" width="0.7" height="10.2"/>
	
		<rect x="1021.1" y="534.9" transform="matrix(0.9491 -0.315 0.315 0.9491 -117.197 349.104)" class="st2" width="0.7" height="4.5"/>
	
		<rect x="1023" y="534.3" transform="matrix(0.949 -0.3154 0.3154 0.949 -116.9939 350.1393)" class="st2" width="0.7" height="4.5"/>
	
		<rect x="1024.8" y="533.7" transform="matrix(0.949 -0.3154 0.3154 0.949 -116.7096 350.6916)" class="st2" width="0.7" height="4.5"/>
	
		<rect x="1027.1" y="533" transform="matrix(0.949 -0.3154 0.3154 0.949 -116.8752 351.473)" class="st2" width="0.7" height="7.6"/>
	
		<rect x="1028.5" y="532.5" transform="matrix(0.9494 -0.3142 0.3142 0.9494 -115.8996 350.2866)" class="st2" width="0.7" height="4.5"/>
	
		<rect x="1030.3" y="531.9" transform="matrix(0.949 -0.3154 0.3154 0.949 -115.854 352.3304)" class="st2" width="0.7" height="4.5"/>
	
		<rect x="1032.1" y="531.3" transform="matrix(0.9494 -0.3142 0.3142 0.9494 -115.332 351.3769)" class="st2" width="0.7" height="4.5"/>
	
		<rect x="1034.9" y="530.5" transform="matrix(0.9491 -0.315 0.315 0.9491 -116.0223 353.3509)" class="st2" width="0.7" height="10.2"/>
	
		<rect x="1035.7" y="530.1" transform="matrix(0.9494 -0.3142 0.3142 0.9494 -114.7804 352.436)" class="st2" width="0.7" height="4.5"/>
	
		<rect x="1037.5" y="529.5" transform="matrix(0.9491 -0.315 0.315 0.9491 -114.6519 353.9878)" class="st2" width="0.7" height="4.5"/>
	
		<rect x="1039.4" y="528.9" transform="matrix(0.9491 -0.315 0.315 0.9491 -114.3677 354.5343)" class="st2" width="0.7" height="4.5"/>
	
		<rect x="1041.7" y="528.2" transform="matrix(0.949 -0.3154 0.3154 0.949 -114.611 355.8158)" class="st2" width="0.7" height="7.6"/>
	
		<rect x="1043" y="527.7" transform="matrix(0.9491 -0.315 0.315 0.9491 -113.7977 355.6246)" class="st2" width="0.7" height="4.5"/>
	
		<rect x="1044.8" y="527.1" transform="matrix(0.9495 -0.3137 0.3137 0.9495 -113.2876 354.6584)" class="st2" width="0.7" height="4.5"/>
	
		<rect x="1046.7" y="526.4" transform="matrix(0.9491 -0.315 0.315 0.9491 -113.2295 356.7167)" class="st2" width="0.7" height="4.5"/>
	
		<rect x="1049.4" y="525.7" transform="matrix(0.949 -0.3154 0.3154 0.949 -113.8359 358.1938)" class="st2" width="0.7" height="10.2"/>
	
		<rect x="1050.2" y="525.3" transform="matrix(0.9491 -0.315 0.315 0.9491 -112.6758 357.7796)" class="st2" width="0.7" height="4.5"/>
	
		<rect x="1052.1" y="524.7" transform="matrix(0.949 -0.3154 0.3154 0.949 -112.4635 358.8313)" class="st2" width="0.7" height="4.5"/>
	
		<rect x="1053.9" y="524.1" transform="matrix(0.9491 -0.315 0.315 0.9491 -112.1064 358.8713)" class="st2" width="0.7" height="4.5"/>
	
		<rect x="1056.2" y="523.4" transform="matrix(0.9495 -0.3137 0.3137 0.9495 -112.0521 358.1254)" class="st2" width="0.7" height="7.6"/>
	
		<rect x="1057.6" y="522.8" transform="matrix(0.9495 -0.3137 0.3137 0.9495 -111.3207 358.4361)" class="st2" width="0.7" height="4.5"/>
	
		<rect x="1059.4" y="522.2" transform="matrix(0.9491 -0.315 0.315 0.9491 -111.2533 360.5098)" class="st2" width="0.7" height="4.5"/>
	
		<rect x="1061.2" y="521.6" transform="matrix(0.9495 -0.3137 0.3137 0.9495 -110.7544 359.5237)" class="st2" width="0.7" height="4.5"/>
	
		<rect x="1064" y="520.9" transform="matrix(0.949 -0.3154 0.3154 0.949 -111.5703 362.5376)" class="st2" width="0.7" height="10.2"/>
	
		<rect x="1064.8" y="520.4" transform="matrix(0.9491 -0.315 0.315 0.9491 -110.4137 362.1187)" class="st2" width="0.7" height="4.5"/>
	
		<rect x="1066.6" y="519.8" transform="matrix(0.949 -0.3154 0.3154 0.949 -110.1993 363.174)" class="st2" width="0.7" height="4.5"/>
	
		<rect x="1068.5" y="519.2" transform="matrix(0.9494 -0.3142 0.3142 0.9494 -109.7062 362.1799)" class="st2" width="0.7" height="4.5"/>
	
		<rect x="1070.8" y="518.5" transform="matrix(0.9491 -0.315 0.315 0.9491 -110.0115 363.9905)" class="st2" width="0.7" height="7.6"/>
	
		<rect x="1072.1" y="518" transform="matrix(0.949 -0.3154 0.3154 0.949 -109.3435 364.8141)" class="st2" width="0.7" height="4.5"/>
	
		<rect x="1074" y="517.4" transform="matrix(0.949 -0.3154 0.3154 0.949 -109.0589 365.3604)" class="st2" width="0.7" height="4.5"/>
	
		<rect x="1075.8" y="516.8" transform="matrix(0.949 -0.3154 0.3154 0.949 -108.7743 365.9075)" class="st2" width="0.7" height="4.5"/>
	
		<rect x="1078.5" y="516" transform="matrix(0.9491 -0.315 0.315 0.9491 -109.2381 366.3643)" class="st2" width="0.7" height="10.2"/>
	
		<rect x="1079.4" y="515.6" transform="matrix(0.9495 -0.3137 0.3137 0.9495 -107.9547 364.9061)" class="st2" width="0.7" height="4.5"/>
	<path class="st1" d="M922.9,711.8l90.9,46.4l27.9-54.6l-90.9-46.4L922.9,711.8z M1011.1,747.5l-78-39.8l0.6-1.1l78,39.8
		L1011.1,747.5z M1014.3,741.2l-78-39.8l0.6-1.1l78,39.8L1014.3,741.2z M1018.1,733.8l-0.6,1.1l-78-39.8l0.6-1.1L1018.1,733.8z
		 M967.9,701.6l-25.1-12.8l0.6-1.1l25.2,12.8L967.9,701.6z M971.1,695.3L946,682.5l0.6-1.1l25.2,12.8L971.1,695.3z M974.4,689
		l-25.2-12.8l0.6-1.1l25.2,12.8L974.4,689z M977.6,682.7l-25.2-12.8l0.6-1.1l25.2,12.8L977.6,682.7z"/>
	<rect x="819" y="464" transform="matrix(0.9927 -0.1208 0.1208 0.9927 -51.2854 104.5542)" class="st1" width="35" height="22.3"/>
	
		<rect x="819.9" y="480.1" transform="matrix(0.9927 -0.1208 0.1208 0.9927 -52.1487 104.7103)" class="st2" width="35" height="4.7"/>
	<path class="st3" d="M830.4,454.9c0.6,0.6,0.8,1.5,0.5,3.3c-0.8,4.2-3.7,18.9-4.6,23.2l1.6-0.2c0.9-4.7,3.7-18.7,4.5-22.8
		c0.5-2.5-0.1-3.9-1.1-4.6c-3.1-0.2-5.4-1.3-5.6-3c-0.3-2.1,3-4.3,7.3-4.8s8,0.8,8.2,2.9c0.2,1.7-1.8,3.4-4.7,4.3
		c-0.8,1-1.1,2.4,0,4.8c1.7,3.8,7.8,16.7,9.8,21l1.6-0.2c-1.8-3.9-8.2-17.5-10-21.4c-0.8-1.6-0.8-2.6-0.3-3.3
		c3.5-1.2,5.8-3.3,5.5-5.4c-0.3-2.8-5-4.5-10.3-3.9c-5.4,0.6-9.4,3.4-9.1,6.2C824,453.1,826.7,454.6,830.4,454.9z"/>
</g>
</svg>
